<?xml version="1.0" encoding="UTF-8"?>
<svg version="1.1" xmlns="http://www.w3.org/2000/svg" width="1080" height="1080">
<path d="M0 0 C356.4 0 712.8 0 1080 0 C1080 356.4 1080 712.8 1080 1080 C723.6 1080 367.2 1080 0 1080 C0 723.6 0 367.2 0 0 Z " fill="#000000" transform="translate(0,0)"/>
<path d="M0 0 C1.46258495 0.00187033 2.92517054 0.00329132 4.38775635 0.00428772 C8.19508666 0.00806454 12.00237744 0.01785216 15.80969238 0.0289917 C19.71166449 0.03931113 23.61364312 0.04380766 27.515625 0.04882812 C35.14064282 0.05947992 42.76562832 0.0764965 50.390625 0.09765625 C49.1188606 4.02961097 47.77329532 7.46421462 45.66015625 11.01953125 C45.11190186 11.94967041 44.56364746 12.87980957 43.9987793 13.83813477 C43.40621338 14.83127686 42.81364746 15.82441895 42.203125 16.84765625 C40.93417044 18.99696773 39.66596771 21.14672322 38.3984375 23.296875 C37.41085449 24.9682251 37.41085449 24.9682251 36.40332031 26.67333984 C33.08863681 32.31280501 29.83635775 37.9879577 26.578125 43.66015625 C22.43626128 50.85425574 18.28223034 58.03915048 14.015625 65.16015625 C13.65235107 65.76738525 13.28907715 66.37461426 12.91479492 67.00024414 C10.52111761 70.96716364 10.52111761 70.96716364 9.390625 72.09765625 C7.23676137 72.27985792 5.07749621 72.39855446 2.91796875 72.4921875 C1.54154271 72.55795267 0.1651606 72.62464244 -1.21118164 72.69213867 C-1.93854523 72.72697357 -2.66590881 72.76180847 -3.41531372 72.79769897 C-65.64778118 75.89909657 -118.96671207 100.67328556 -161.609375 146.09765625 C-173.18444814 159.00978405 -182.61707043 173.74972826 -190.609375 189.09765625 C-190.98304199 189.81228027 -191.35670898 190.5269043 -191.74169922 191.26318359 C-201.48123325 210.15663363 -208.96712858 230.95968492 -211.609375 252.09765625 C-131.419375 252.09765625 -51.229375 252.09765625 31.390625 252.09765625 C27.925625 257.54265625 27.925625 257.54265625 24.390625 263.09765625 C18.48733023 273.69675368 16.14602538 283.194436 16.078125 295.28515625 C16.06978638 296.53208252 16.06978638 296.53208252 16.0612793 297.80419922 C16.16970452 307.14730266 18.68568586 315.08119247 21.390625 324.09765625 C-55.829375 324.09765625 -133.049375 324.09765625 -212.609375 324.09765625 C-211.949375 326.07765625 -211.289375 328.05765625 -210.609375 330.09765625 C-210.21007621 332.23910113 -209.83725432 334.38557446 -209.484375 336.53515625 C-199.68160424 389.39455675 -163.93606326 436.9531362 -120.3515625 466.91748047 C-101.39365321 479.75976375 -79.74756719 490.13841085 -57.609375 496.09765625 C-56.41699219 496.43410156 -55.22460938 496.77054688 -53.99609375 497.1171875 C-46.76071964 499.09744379 -39.45597998 500.61733132 -32.046875 501.78515625 C-30.76466064 501.99785156 -30.76466064 501.99785156 -29.45654297 502.21484375 C-23.81027844 503.02159703 -18.59242252 503.03500258 -12.90234375 502.58984375 C6.97775144 501.23569712 6.97775144 501.23569712 13.01318359 506.296875 C17.81648819 512.40726648 20.80718117 519.3836302 23.80322266 526.50878906 C26.28903458 532.1288191 29.45919365 537.28808872 32.640625 542.53515625 C33.78738847 544.49402898 34.93068346 546.45493679 36.0703125 548.41796875 C38.2720309 552.19068482 40.48689604 555.95524901 42.7109375 559.71484375 C43.72918885 561.44660154 44.74741915 563.17837171 45.765625 564.91015625 C46.23645508 565.69898193 46.70728516 566.48780762 47.19238281 567.30053711 C47.61616211 568.02378174 48.03994141 568.74702637 48.4765625 569.4921875 C48.8482959 570.11971924 49.2200293 570.74725098 49.60302734 571.39379883 C50.390625 573.09765625 50.390625 573.09765625 50.390625 576.09765625 C41.30441443 576.16812007 32.21830223 576.22094437 23.13187504 576.25309277 C18.90967513 576.26854612 14.6876662 576.28939625 10.46557617 576.32397461 C-14.50860317 576.52276966 -38.74282696 575.68536075 -63.171875 569.91015625 C-63.81005157 569.76247803 -64.44822815 569.6147998 -65.10574341 569.46264648 C-83.57372165 565.17504672 -101.50391394 559.30056351 -118.609375 551.09765625 C-119.56602051 550.64205322 -119.56602051 550.64205322 -120.54199219 550.17724609 C-146.36285162 537.79272558 -170.12704287 522.89183616 -191.16015625 503.36328125 C-193.29325367 501.39008108 -195.46296487 499.48470922 -197.671875 497.59765625 C-205.25929197 490.97027979 -212.05857907 483.80391782 -218.3359375 475.9296875 C-220.65958838 473.03510522 -223.06758759 470.22720025 -225.484375 467.41015625 C-231.38815955 460.32744259 -236.54814994 452.7978576 -241.609375 445.09765625 C-242.04813965 444.43185547 -242.4869043 443.76605469 -242.93896484 443.08007812 C-266.41321955 407.19787781 -279.6330233 366.3123662 -285.609375 324.09765625 C-285.72941895 323.31197266 -285.84946289 322.52628906 -285.97314453 321.71679688 C-293.96158782 268.90497209 -283.11590144 211.59415729 -259.609375 164.09765625 C-259.15159668 163.16969238 -258.69381836 162.24172852 -258.22216797 161.28564453 C-249.27533428 143.31121335 -239.13588232 126.77680802 -226.609375 111.09765625 C-225.94421875 110.23914063 -225.2790625 109.380625 -224.59375 108.49609375 C-211.67054608 91.94808873 -196.38815279 75.74097148 -179.609375 63.09765625 C-178.94244629 62.5867041 -178.27551758 62.07575195 -177.58837891 61.54931641 C-126.32376395 22.34959231 -64.79046655 -0.2470179 0 0 Z " fill="#FDFDFD" transform="translate(495.609375,248.90234375)"/>
<path d="M0 0 C9.1820229 -0.09405702 18.36387179 -0.1644342 27.54627705 -0.20724869 C31.8133364 -0.22783174 36.08005853 -0.25558794 40.34692383 -0.30175781 C96.5935562 -0.89358689 146.6600006 12.07737201 188 52 C188.86109375 52.80953125 189.7221875 53.6190625 190.609375 54.453125 C220.44502558 83.17688798 239.94339709 126.42758817 241.10644531 167.78515625 C241.16912564 171.23204776 241.18569944 174.67807479 241.18530273 178.12548828 C241.18748304 180.23360606 241.20570442 182.34119319 241.22460938 184.44921875 C241.34344616 212.95947094 233.70769487 241.03902859 220 266 C219.67386719 266.60924316 219.34773438 267.21848633 219.01171875 267.84619141 C207.6962365 288.96128702 191.75425046 307.20713479 173 322 C172.34386719 322.52335937 171.68773437 323.04671875 171.01171875 323.5859375 C151.62001779 338.61762004 127.22856343 351.27247543 103 356 C99.1660942 354.7220314 98.89363185 353.52549332 96.99609375 350.03125 C96.14035767 348.47531128 96.14035767 348.47531128 95.26733398 346.88793945 C94.66348877 345.76991943 94.05964355 344.65189941 93.4375 343.5 C92.1680355 341.19065327 90.89719871 338.88206036 89.625 336.57421875 C89.00367188 335.44290527 88.38234375 334.3115918 87.7421875 333.14599609 C85.53659748 329.16319999 83.26002694 325.22796426 80.9375 321.3125 C80.55601807 320.66651855 80.17453613 320.02053711 79.78149414 319.35498047 C77.37132484 315.28418513 74.93506797 311.22937083 72.49609375 307.17578125 C71.89611572 306.17313232 71.2961377 305.1704834 70.67797852 304.13745117 C69.4953725 302.1615303 68.3072384 300.18890532 67.11303711 298.2199707 C66.57815674 297.3249585 66.04327637 296.42994629 65.4921875 295.5078125 C65.01120605 294.71004395 64.53022461 293.91227539 64.03466797 293.09033203 C63 291 63 291 63 288 C63.77601563 287.96261719 64.55203125 287.92523437 65.3515625 287.88671875 C95.13641113 286.07403703 121.21845503 273.86617183 141.6875 252.25 C158.80122311 232.3678805 168.17317652 208.13514523 168.1875 181.9375 C168.19974609 180.78572266 168.21199219 179.63394531 168.22460938 178.44726562 C168.24329821 167.33986555 167.01238098 156.65303355 163.375 146.125 C162.98586426 144.98865112 162.98586426 144.98865112 162.58886719 143.8293457 C157.04494499 128.26434441 145.43585464 105.71792732 130 98 C130 97.34 130 96.68 130 96 C129.46246094 95.74734375 128.92492187 95.4946875 128.37109375 95.234375 C125.488104 93.73351048 122.80288392 91.99788393 120.0625 90.25 C96.29358444 75.44158832 71.86090626 72.56083133 44.49609375 72.48828125 C42.07657481 72.4714004 39.65706445 72.4532457 37.23756409 72.43388367 C30.92655116 72.38674722 24.61557306 72.35670396 18.30444336 72.33044434 C11.84156418 72.3004537 5.37880462 72.25398778 -1.08398438 72.20898438 C-13.72259074 72.12336575 -26.36122631 72.05527671 -39 72 C-37.74171891 69.46845084 -36.48179716 66.93774014 -35.22094727 64.4074707 C-34.86900551 63.69897224 -34.51706375 62.99047379 -34.15445709 62.26050568 C-30.93060831 55.79643751 -27.47982158 49.48318474 -23.9375 43.1875 C-22.97304945 41.46230919 -22.00860532 39.73711477 -21.04449463 38.01173401 C-20.04717415 36.22792332 -19.04835018 34.44496099 -18.04931641 32.66210938 C-14.89537599 27.03027581 -11.76229651 21.3868352 -8.62844849 15.74380493 C-7.63962618 13.96382855 -6.64987605 12.18437095 -5.65991211 10.4050293 C-4.76477905 8.79494995 -4.76477905 8.79494995 -3.8515625 7.15234375 C-3.32385254 6.20351318 -2.79614258 5.25468262 -2.25244141 4.27709961 C-1.47590025 2.86524788 -0.72060273 1.44120546 0 0 Z " fill="#FDFDFD" transform="translate(586,249)"/>
<path d="M0 0 C2.77720699 3.49787463 5.00889999 7.27349581 7.25 11.125 C7.67837158 11.85726807 8.10674316 12.58953613 8.5480957 13.34399414 C14.42279652 23.40623358 20.22998104 33.50786298 26.04443359 43.60498047 C29.19332056 49.07169983 32.34686818 54.53572833 35.5 60 C36.74610303 62.16015089 37.99219677 64.32030716 39.23828125 66.48046875 C41.77615993 70.87959075 44.31536583 75.27794321 46.85546875 79.67578125 C52.61308222 89.64647883 58.36221893 99.62139741 64.0625 109.625 C68.26922083 117.00474191 72.52630983 124.35364419 76.8125 131.6875 C86.81680216 148.81626941 86.81680216 148.81626941 91.24520874 156.45596313 C92.22860345 158.15062775 93.21546025 159.84328184 94.20239258 161.53588867 C94.80075928 162.5694751 95.39912598 163.60306152 96.015625 164.66796875 C96.54446289 165.57828857 97.07330078 166.4886084 97.61816406 167.42651367 C99 170 99 170 101 175 C97.04 177.31 93.08 179.62 89 182 C90.36235344 186.08706031 91.25468234 188.75381182 93.3828125 192.234375 C93.82753906 192.97300781 94.27226563 193.71164062 94.73046875 194.47265625 C95.19066406 195.22417969 95.65085937 195.97570312 96.125 196.75 C97.04820031 198.26323468 97.96767062 199.77875335 98.8828125 201.296875 C99.49213623 202.29219238 99.49213623 202.29219238 100.11376953 203.30761719 C101 205 101 205 101 207 C101.90363281 206.48308594 102.80726563 205.96617187 103.73828125 205.43359375 C104.92939067 204.76769793 106.1208134 204.10236234 107.3125 203.4375 C107.90740234 203.09525391 108.50230469 202.75300781 109.11523438 202.40039062 C110.70282559 201.52233738 112.34993931 200.75413732 114 200 C117.78609902 201.26203301 118.08350755 202.38193903 120.01171875 205.80078125 C120.59727539 206.82792236 121.18283203 207.85506348 121.78613281 208.91333008 C122.41358398 210.03505615 123.04103516 211.15678223 123.6875 212.3125 C124.34513512 213.47275625 125.00367863 214.63249806 125.66308594 215.79174805 C127.05712493 218.24533949 128.44613519 220.70168132 129.83154297 223.16015625 C133.09345072 228.94399766 136.39679132 234.70417712 139.69497681 240.46737671 C140.7339555 242.28443987 141.77101179 244.10258548 142.80737305 245.92114258 C143.44328369 247.03642334 144.07919434 248.1517041 144.734375 249.30078125 C145.29350586 250.28216064 145.85263672 251.26354004 146.42871094 252.2746582 C147.48829123 254.11246037 148.58114979 255.93142159 149.70410156 257.73120117 C151 260 151 260 151 262 C144.07 262 137.14 262 130 262 C128.370625 259.009375 126.74125 256.01875 125.0625 252.9375 C120.25517061 244.15654475 115.23533882 235.53166327 110 227 C102.89101847 230.41671239 96.10758773 234.20811503 89.375 238.3125 C88.46621094 238.86228516 87.55742188 239.41207031 86.62109375 239.97851562 C84.41197209 241.31561557 82.2050087 242.65613225 80 244 C81.25262911 248.15921509 82.79910405 251.58699478 85.125 255.25 C88 259.78947368 88 259.78947368 88 262 C81.4 262 74.8 262 68 262 C66.0604841 258.62614444 64.12332534 255.25097222 62.1875 251.875 C61.36668945 250.44800781 61.36668945 250.44800781 60.52929688 248.9921875 C57.88912157 244.38388152 55.29784523 239.78919322 53 235 C54.95519384 233.82807953 56.9142539 232.6626071 58.875 231.5 C60.51082031 230.52546875 60.51082031 230.52546875 62.1796875 229.53125 C65 228 65 228 67 228 C64.93788877 224.17564807 62.8468874 220.36787916 60.75 216.5625 C60.16347656 215.47388672 59.57695313 214.38527344 58.97265625 213.26367188 C58.39902344 212.22919922 57.82539062 211.19472656 57.234375 210.12890625 C56.71069336 209.17056885 56.18701172 208.21223145 55.64746094 207.22485352 C54.2010959 204.88609167 54.2010959 204.88609167 51.95458984 204.10351562 C48.96573521 203.94522505 47.33574058 205.31781851 44.875 206.9375 C40.17312073 210 40.17312073 210 38 210 C37.71503662 209.50000488 37.43007324 209.00000977 37.13647461 208.48486328 C29.11179883 194.41032807 21.03111791 180.36869669 12.92773438 166.33935547 C11.01770571 163.03067105 9.1100164 159.72064961 7.203125 156.41015625 C0.61960635 144.98320721 -5.99260623 133.57422673 -12.65380859 122.19238281 C-16.87169541 114.9708673 -21.02062602 107.71207201 -25.15408325 100.44210815 C-32.30247644 87.87273226 -39.6568821 75.45673965 -47.37890625 63.23046875 C-47.74951172 62.63935303 -48.12011719 62.0482373 -48.50195312 61.43920898 C-49.47584211 59.88802622 -50.45821654 58.34217941 -51.44140625 56.796875 C-53.04191708 53.92478037 -54.06472248 51.14551047 -55 48 C-53.67548828 47.65388672 -53.67548828 47.65388672 -52.32421875 47.30078125 C-35.02621031 42.60003352 -18.40790888 35.07682514 -8.81738281 19.02001953 C-5.45876331 12.87582187 -2.52240286 6.5330234 0 0 Z " fill="#FDFDFD" transform="translate(638,561)"/>
<path d="M0 0 C1.05960938 0.76957031 1.05960938 0.76957031 2.140625 1.5546875 C11.21719943 8.795161 18.03782368 20.45437863 19.75 32 C19.85961575 33.33143029 19.94164036 34.66534035 20 36 C20.05994141 37.17175781 20.05994141 37.17175781 20.12109375 38.3671875 C20.48309044 52.03788618 16.00200672 64.38466886 7.25 74.9375 C-2.07794147 84.56922501 -14.97852916 90.95102717 -28.43237305 91.54101562 C-42.70145946 91.68083075 -56.04893364 86.54662081 -66.75 76.9375 C-77.14858528 65.62139248 -81.9676946 51.56076167 -81.40625 36.38671875 C-80.45704702 22.91693526 -73.98956256 11.55574364 -64.375 2.25 C-45.64712152 -13.10982129 -19.75511535 -14.50109531 0 0 Z " fill="#020508" transform="translate(606,504)"/>
<path d="M0 0 C1.05960938 0.76957031 1.05960938 0.76957031 2.140625 1.5546875 C11.21719943 8.795161 18.03782368 20.45437863 19.75 32 C19.85961575 33.33143029 19.94164036 34.66534035 20 36 C20.05994141 37.17175781 20.05994141 37.17175781 20.12109375 38.3671875 C20.48309044 52.03788618 16.00200672 64.38466886 7.25 74.9375 C-2.07794147 84.56922501 -14.97852916 90.95102717 -28.43237305 91.54101562 C-42.70145946 91.68083075 -56.04893364 86.54662081 -66.75 76.9375 C-77.14858528 65.62139248 -81.9676946 51.56076167 -81.40625 36.38671875 C-80.45704702 22.91693526 -73.98956256 11.55574364 -64.375 2.25 C-45.64712152 -13.10982129 -19.75511535 -14.50109531 0 0 Z M-35 -3 C-35.30292969 -2.22914063 -35.60585938 -1.45828125 -35.91796875 -0.6640625 C-36.33691406 0.33882813 -36.75585938 1.34171875 -37.1875 2.375 C-37.59355469 3.37273437 -37.99960937 4.37046875 -38.41796875 5.3984375 C-40.31791751 8.52279768 -41.49213366 9.14038588 -45 10 C-49.05375399 9.67308436 -52.77714806 9.04828459 -56.75 8.1875 C-60.0933591 7.63250064 -60.0933591 7.63250064 -62.4375 9.9375 C-63.2109375 10.9584375 -63.2109375 10.9584375 -64 12 C-63.77183594 12.56847656 -63.54367187 13.13695312 -63.30859375 13.72265625 C-61.37041094 18.9288065 -60.69380155 22.4486566 -62 28 C-62.061875 28.763125 -62.12375 29.52625 -62.1875 30.3125 C-63 32 -63 32 -65.75 33.0625 C-66.8225 33.371875 -67.895 33.68125 -69 34 C-71.92902303 34.95668033 -71.92902303 34.95668033 -74 37 C-74.43712796 39.794299 -74.23390169 42.14639938 -74 45 C-72.5437455 45.67119549 -71.08492133 46.33681807 -69.625 47 C-68.81289063 47.37125 -68.00078125 47.7425 -67.1640625 48.125 C-65.08001567 49.12495013 -65.08001567 49.12495013 -63 49 C-61.4537231 55.01858549 -60.52758062 59.09366482 -63 65 C-63.33205222 67.85564912 -63.35183233 69.34031437 -62 71.875 C-58.09452437 74.07183004 -53.12245712 72.25198017 -48.9375 71.3125 C-45.0632783 70.90034876 -42.56101341 71.42493637 -39 73 C-37.6875 75.8125 -37.6875 75.8125 -37 79 C-36.34588315 80.67163195 -35.68346682 82.34015202 -35 84 C-32.36 84 -29.72 84 -27 84 C-26.62488281 83.22914063 -26.24976563 82.45828125 -25.86328125 81.6640625 C-25.35152344 80.66117188 -24.83976563 79.65828125 -24.3125 78.625 C-23.81363281 77.62726563 -23.31476562 76.62953125 -22.80078125 75.6015625 C-20.72882343 72.60823515 -19.4899506 71.87657106 -16 71 C-12.625 71.3125 -12.625 71.3125 -9 72 C-4.36473134 73.04651668 -4.36473134 73.04651668 0 72 C0 71.34 0 70.68 0 70 C0.66 70 1.32 70 2 70 C1.7834375 68.2365625 1.7834375 68.2365625 1.5625 66.4375 C1.47613281 65.70660156 1.38976562 64.97570312 1.30078125 64.22265625 C1.03519893 62.26010635 0.65124791 60.3143649 0.25 58.375 C-0.07019306 54.05239374 0.3644048 52.46392512 3 49 C6.21384468 47.03655791 9.53553852 45.46898367 13 44 C13 41.69 13 39.38 13 37 C12.22914063 36.62488281 11.45828125 36.24976563 10.6640625 35.86328125 C9.66117188 35.35152344 8.65828125 34.83976563 7.625 34.3125 C6.62726563 33.81363281 5.62953125 33.31476562 4.6015625 32.80078125 C1.59784001 30.72162799 0.86857732 29.5066786 0 26 C0.3116596 22.07308906 0.85888625 18.56445501 1.8125 14.75 C2.25373962 11.92810314 2.25373962 11.92810314 0.625 9.5 C-2.43359942 7.7522289 -2.81791854 7.9562101 -6.0625 8.8125 C-6.8359375 9.03292969 -7.609375 9.25335937 -8.40625 9.48046875 C-12.96193838 10.39297862 -17.43674612 9.63117904 -22 9 C-22.19335938 8.38511719 -22.38671875 7.77023437 -22.5859375 7.13671875 C-22.97652344 5.92435547 -22.97652344 5.92435547 -23.375 4.6875 C-23.63023437 3.88699219 -23.88546875 3.08648437 -24.1484375 2.26171875 C-24.98831811 -0.22724528 -24.98831811 -0.22724528 -27 -3 C-28.97747122 -3.36297936 -28.97747122 -3.36297936 -31.125 -3.1875 C-32.40375 -3.125625 -33.6825 -3.06375 -35 -3 Z " fill="#5BBEE2" transform="translate(606,504)"/>
<path d="M0 0 C4.50334071 3.23992499 7.52260466 7.39203273 9.26953125 12.6328125 C10.01425938 19.71836874 9.78558177 25.55401883 5.90234375 31.65625 C1.8140796 36.60520134 -3.07543705 40.23288521 -9.55078125 40.94140625 C-17.72019446 41.2600713 -22.64146035 40.19463402 -28.73046875 34.6328125 C-34.23182415 28.84933631 -35.20133363 23.41618775 -35.0390625 15.63671875 C-34.40430737 9.45789985 -31.86947848 5.42151106 -27.35546875 1.2578125 C-18.94912076 -5.28243287 -9.09609804 -5.01359734 0 0 Z " fill="#5AC0E7" transform="translate(587.73046875,525.3671875)"/>
<path d="M0 0 C0.33 0.66 0.66 1.32 1 2 C2.32 2 3.64 2 5 2 C5.33 3.98 5.66 5.96 6 8 C3.69 8.66 1.38 9.32 -1 10 C-1 10.99 -1 11.98 -1 13 C-9.36005884 15.38858824 -17.38735156 15.190218 -26 15 C-26 14.01 -26 13.02 -26 12 C-21.66666667 12 -17.33333333 12 -13 12 C-12.67 11.34 -12.34 10.68 -12 10 C-11.34 10 -10.68 10 -10 10 C-9.896875 9.401875 -9.79375 8.80375 -9.6875 8.1875 C-8.46583515 4.30038456 -6.36947157 3.19560259 -2.8125 1.3125 C-1.884375 0.879375 -0.95625 0.44625 0 0 Z " fill="#59C1E7" transform="translate(596,578)"/>
<path d="M0 0 C1.32 0 2.64 0 4 0 C4.66 3.3 5.32 6.6 6 10 C7.65 10.33 9.3 10.66 11 11 C11.99 11.33 12.98 11.66 14 12 C14.99 11.34 15.98 10.68 17 10 C19.04296875 9.8046875 19.04296875 9.8046875 21.1875 9.875 C23.0746875 9.936875 23.0746875 9.936875 25 10 C25.33 8.68 25.66 7.36 26 6 C29.01657791 6.14030595 31.23841273 6.29351465 33.51171875 8.40234375 C34.73256066 9.88904235 35.87246522 11.44134898 37 13 C36.34 13.99 35.68 14.98 35 16 C35 15.34 35 14.68 35 14 C34.34 14 33.68 14 33 14 C32.67 14.99 32.34 15.98 32 17 C31.67 17 31.34 17 31 17 C30.01 20.96 29.02 24.92 28 29 C27.34 29 26.68 29 26 29 C26.144375 27.80375 26.28875 26.6075 26.4375 25.375 C26.52386719 24.64667969 26.61023438 23.91835938 26.69921875 23.16796875 C27 21 27 21 27.75 17.6875 C28.29238886 15.01705 28.29238886 15.01705 26.78125 13.27734375 C25.08979319 11.77101611 25.08979319 11.77101611 22.984375 12.1796875 C22.24703125 12.40914062 21.5096875 12.63859375 20.75 12.875 C16.4962486 14.00241704 13.35271813 13.93882156 9 13 C8.33097656 12.94585938 7.66195312 12.89171875 6.97265625 12.8359375 C5 12 5 12 3.515625 9.27734375 C3.09796875 8.17519531 2.6803125 7.07304687 2.25 5.9375 C1.82203125 4.83277344 1.3940625 3.72804688 0.953125 2.58984375 C0.63859375 1.73519531 0.3240625 0.88054687 0 0 Z " fill="#5DB4D3" transform="translate(579,501)"/>
<path d="M0 0 C4.67761904 7.01642856 3.65071115 18.1520321 2.1875 26.1875 C1.26111533 30.40621578 -0.13895244 34.10871874 -2 38 C-2.33 38 -2.66 38 -3 38 C-3.05395478 36.37536158 -3.09277195 34.75021459 -3.125 33.125 C-3.14820313 32.22007812 -3.17140625 31.31515625 -3.1953125 30.3828125 C-3 28 -3 28 -1 26 C-0.3574765 23.93125966 -0.3574765 23.93125966 0 22 C-2.475 21.01 -2.475 21.01 -5 20 C-5 17.36 -5 14.72 -5 12 C-8.3 10.35 -11.6 8.7 -15 7 C-14.34 6.67 -13.68 6.34 -13 6 C-10.65794699 6.97940398 -8.32481174 7.98034573 -6 9 C-5.01 9 -4.02 9 -3 9 C-1.68 9 -0.36 9 1 9 C0.67 6.03 0.34 3.06 0 0 Z " fill="#5CB4D4" transform="translate(623,529)"/>
<path d="M0 0 C0.58007812 0.08378906 1.16015625 0.16757812 1.7578125 0.25390625 C6.42315303 0.86209421 10.35442117 1.07205665 15 0 C13.20239405 2.08143847 12.08308258 2.97163034 9.4375 3.875 C6.77640904 4.775554 6.77640904 4.775554 5.9375 7.4375 C5.628125 8.283125 5.31875 9.12875 5 10 C2.875 11.8125 2.875 11.8125 1 13 C-0.010625 12.525625 -1.02125 12.05125 -2.0625 11.5625 C-5.65922205 10.0063672 -9.09268709 9.3987054 -13 9 C-11.375 7.9375 -11.375 7.9375 -9 7 C-8.030625 7.2475 -7.06125 7.495 -6.0625 7.75 C-3.06638198 8.35669337 -3.06638198 8.35669337 -1.50390625 6.73828125 C-0.25576317 5.22141614 0.88015015 3.61390125 2 2 C1.34 2 0.68 2 0 2 C0 1.34 0 0.68 0 0 Z " fill="#050F15" transform="translate(586,513)"/>
<path d="M0 0 C1 3 1 3 0.9375 5.5625 C0.72472678 8.18389309 0.72472678 8.18389309 3 10 C5.06874034 10.6425235 5.06874034 10.6425235 7 11 C7 11.66 7 12.32 7 13 C5.02 13.33 3.04 13.66 1 14 C1.33 14.66 1.66 15.32 2 16 C2.99 16.33 3.98 16.66 5 17 C6.02104551 17.97850195 7.0206121 18.97980427 8 20 C8.99 20.66 9.98 21.32 11 22 C10.67 22.66 10.34 23.32 10 24 C3.19256003 20.01486165 -2.22511913 16.32349089 -7 10 C-5.68 10 -4.36 10 -3 10 C-2.01 6.7 -1.02 3.4 0 0 Z " fill="#5BAEC9" transform="translate(543,566)"/>
<path d="M0 0 C0 0.99 0 1.98 0 3 C-0.66 3 -1.32 3 -2 3 C-1.67 4.65 -1.34 6.3 -1 8 C-7.625 11 -7.625 11 -11 11 C-10.67 13.97 -10.34 16.94 -10 20 C-12.37327851 16.44008224 -12.78356356 14.25658339 -13 10 C-12.00198977 6.60676522 -11.07263179 4.70706137 -8.0859375 2.73828125 C-2.80153509 0 -2.80153509 0 0 0 Z " fill="#59C1E8" transform="translate(618,549)"/>
<path d="M0 0 C2.0625 0.4375 2.0625 0.4375 4 1 C4.12375 1.639375 4.2475 2.27875 4.375 2.9375 C4.684375 3.9584375 4.684375 3.9584375 5 5 C5.66 5.33 6.32 5.66 7 6 C7 5.34 7 4.68 7 4 C7.66 4 8.32 4 9 4 C8.85962479 5.81293089 8.71255111 7.6253443 8.5625 9.4375 C8.48128906 10.44683594 8.40007813 11.45617187 8.31640625 12.49609375 C8 15 8 15 7 16 C5.33382885 16.04063832 3.66611905 16.042721 2 16 C2.33 13.69 2.66 11.38 3 9 C2.01 8.67 1.02 8.34 0 8 C-0.38063221 5.6739143 -0.71269945 3.33944736 -1 1 C-0.67 0.67 -0.34 0.34 0 0 Z " fill="#58C1EB" transform="translate(535,518)"/>
<path d="M0 0 C0 3 0 3 -1.5 4.6875 C-1.995 5.120625 -2.49 5.55375 -3 6 C-2.34 6.33 -1.68 6.66 -1 7 C-3 9 -3 9 -5 10 C-5 10.66 -5 11.32 -5 12 C-2.69 12 -0.38 12 2 12 C2 12.99 2 13.98 2 15 C1.39671875 14.91621094 0.7934375 14.83242188 0.171875 14.74609375 C-0.62734375 14.64425781 -1.4265625 14.54242187 -2.25 14.4375 C-3.03890625 14.33308594 -3.8278125 14.22867188 -4.640625 14.12109375 C-7.00532874 13.99972651 -8.7511037 14.30366743 -11 15 C-10.34 14.67 -9.68 14.34 -9 14 C-9 13.34 -9 12.68 -9 12 C-7.5 10.375 -7.5 10.375 -6 9 C-6.721875 9.474375 -7.44375 9.94875 -8.1875 10.4375 C-10.89475226 11.94152903 -12.96194275 12.56599182 -16 13 C-11.42908351 6.9856362 -6.62584216 3.57481207 0 0 Z " fill="#5EB7D5" transform="translate(553,499)"/>
<path d="M0 0 C7.51627976 0.55676146 15.80128261 2.11148516 21 8 C20.33613281 7.91621094 19.67226563 7.83242188 18.98828125 7.74609375 C12.45279152 6.94574958 12.45279152 6.94574958 6 8 C5.34 7.01 4.68 6.02 4 5 C4.66 4.34 5.32 3.68 6 3 C4.02 2.34 2.04 1.68 0 1 C0 0.67 0 0.34 0 0 Z " fill="#5EBDDE" transform="translate(582,495)"/>
<path d="M0 0 C0 3.75947472 -0.04212302 6.79224207 -2.4375 9.8125 C-4 11 -4 11 -6 11 C-5.67 16.94 -5.34 22.88 -5 29 C-8.22393501 25.77606499 -8.20611516 22.68547677 -8.3125 18.3125 C-8.25247285 11.22072063 -6.4583869 6.731541 -1.75 1.5 C-1.1725 1.005 -0.595 0.51 0 0 Z " fill="#61AECC" transform="translate(561,526)"/>
<path d="M0 0 C0.433125 0.639375 0.86625 1.27875 1.3125 1.9375 C2.91239177 4.26746003 2.91239177 4.26746003 6 5 C6 5.66 6 6.32 6 7 C6.66 7.33 7.32 7.66 8 8 C8 8.99 8 9.98 8 11 C7.34 11 6.68 11 6 11 C6.515625 11.94875 7.03125 12.8975 7.5625 13.875 C8.036875 14.90625 8.51125 15.9375 9 17 C8.67 17.66 8.34 18.32 8 19 C7.03697644 17.44038638 6.07978996 15.87716775 5.125 14.3125 C4.59132813 13.44238281 4.05765625 12.57226562 3.5078125 11.67578125 C1.17112547 7.5290698 0 4.81269897 0 0 Z " fill="#62B9D9" transform="translate(527,556)"/>
<path d="M0 0 C0 0.33 0 0.66 0 1 C-0.61746094 1.02578125 -1.23492188 1.0515625 -1.87109375 1.078125 C-6.62683573 1.39662218 -10.39872553 1.98061276 -14.6875 4.125 C-18.96062228 6.23875088 -21.41888571 6.1696462 -26 5 C-19.67640904 -1.32359096 -8.24911112 -0.35409539 0 0 Z " fill="#56A4C2" transform="translate(581,494)"/>
<path d="M0 0 C-0.79664063 0.42410156 -1.59328125 0.84820312 -2.4140625 1.28515625 C-8.88159781 4.86511801 -13.6126862 8.02837844 -18 14 C-19.0703125 10.2734375 -19.0703125 10.2734375 -18.4375 7.8125 C-17 6 -17 6 -13.875 5.25 C-12.92625 5.1675 -11.9775 5.085 -11 5 C-11 4.34 -11 3.68 -11 3 C-9.68 2.67 -8.36 2.34 -7 2 C-7 1.34 -7 0.68 -7 0 C-3.98968256 -0.93423645 -3.13349732 -1.04449911 0 0 Z " fill="#020F1D" transform="translate(555,499)"/>
<path d="M0 0 C0.33 0.99 0.66 1.98 1 3 C0.01 3.66 -0.98 4.32 -2 5 C-2.66 5.66 -3.32 6.32 -4 7 C-4 7.99 -4 8.98 -4 10 C-5.98 10.66 -7.96 11.32 -10 12 C-7.02407002 3.64989059 -7.02407002 3.64989059 -2.75 0.9375 C-1.8425 0.628125 -0.935 0.31875 0 0 Z " fill="#5EB5D3" transform="translate(590,574)"/>
<path d="M0 0 C0.53367187 0.31453125 1.06734375 0.6290625 1.6171875 0.953125 C4.50236497 2.22071117 6.98881867 2.48800942 10.125 2.75 C11.70667969 2.89695312 11.70667969 2.89695312 13.3203125 3.046875 C16.1554799 3.30760763 16.1554799 3.30760763 18 1 C21.125 0.875 21.125 0.875 24 1 C21.22449902 4.03983441 19.21987273 4.9163148 15.0390625 5.203125 C13.34910156 5.22632813 13.34910156 5.22632813 11.625 5.25 C10.50351562 5.27578125 9.38203125 5.3015625 8.2265625 5.328125 C4.68414304 4.96787895 2.8037379 4.16318355 0 2 C0 1.34 0 0.68 0 0 Z " fill="#65B2CA" transform="translate(563,561)"/>
<path d="M0 0 C-0.33 0.99 -0.66 1.98 -1 3 C-4.57350041 3.81898622 -7.85659479 4.11811958 -11.51953125 4.09765625 C-12.54111328 4.09443359 -13.56269531 4.09121094 -14.61523438 4.08789062 C-15.67033203 4.07951172 -16.72542969 4.07113281 -17.8125 4.0625 C-18.88693359 4.05798828 -19.96136719 4.05347656 -21.06835938 4.04882812 C-23.71229683 4.03707729 -26.35611952 4.02064787 -29 4 C-29 3.34 -29 2.68 -29 2 C-28.39526855 2.01047363 -27.79053711 2.02094727 -27.16748047 2.03173828 C-24.4033633 2.07354668 -21.63931292 2.09940451 -18.875 2.125 C-17.44800781 2.15013672 -17.44800781 2.15013672 -15.9921875 2.17578125 C-10.39338768 2.2146618 -5.27669733 0 0 0 Z " fill="#03101C" transform="translate(592,592)"/>
<path d="M0 0 C0.66 0.99 1.32 1.98 2 3 C1.3125 5.625 1.3125 5.625 0 8 C-0.99 8.33 -1.98 8.66 -3 9 C-4.22776755 10.57237102 -4.22776755 10.57237102 -5.3125 12.4375 C-7.69841859 15.98728132 -9.73575545 17.1074837 -14 18 C-13.319375 17.360625 -12.63875 16.72125 -11.9375 16.0625 C-7.23905123 11.36405123 -2.78911717 6.05911662 0 0 Z " fill="#040F1E" transform="translate(620,567)"/>
<path d="M0 0 C3.875 1.75 3.875 1.75 5 4 C4.01 4.33 3.02 4.66 2 5 C1.67 5.99 1.34 6.98 1 8 C-1.64 8 -4.28 8 -7 8 C-2.25 3.125 -2.25 3.125 0 2 C0 1.34 0 0.68 0 0 Z " fill="#5FBBDF" transform="translate(603,503)"/>
<path d="M0 0 C1 3 1 3 0.9375 5.5625 C0.72472678 8.18389309 0.72472678 8.18389309 3 10 C2.67 10.99 2.34 11.98 2 13 C-2.75 12.25 -2.75 12.25 -5 10 C-4.34 10 -3.68 10 -3 10 C-2.01 6.7 -1.02 3.4 0 0 Z " fill="#60B9D8" transform="translate(543,566)"/>
<path d="M0 0 C0.61875 0.33 1.2375 0.66 1.875 1 C1.875 1.33 1.875 1.66 1.875 2 C-4.395 1.67 -10.665 1.34 -17.125 1 C-11.48170382 -1.82164809 -6.02348119 -1.92751398 0 0 Z " fill="#63B2CC" transform="translate(583.125,523)"/>
<path d="M0 0 C5.46773319 -0.21442091 9.49644428 -0.07190818 13.8125 3.5 C15 5 15 5 15 7 C7.5 4 7.5 4 0 1 C0 0.67 0 0.34 0 0 Z " fill="#071727" transform="translate(590,496)"/>
<path d="M0 0 C2 2 2 2 2 5 C4.64 5 7.28 5 10 5 C10.33 5.66 10.66 6.32 11 7 C7.37 7.33 3.74 7.66 0 8 C0 5.36 0 2.72 0 0 Z " fill="#66B8D8" transform="translate(569,583)"/>
<path d="M0 0 C0.33 0 0.66 0 1 0 C1 1.65 1 3.3 1 5 C1.66 5.33 2.32 5.66 3 6 C2.01 6 1.02 6 0 6 C0.33 8.97 0.66 11.94 1 15 C-1.35145082 11.47282377 -1.71009408 9.20363578 -2 5 C-1.0625 2.0625 -1.0625 2.0625 0 0 Z M3 4 C6 5 6 5 6 5 Z " fill="#62B4D1" transform="translate(607,554)"/>
<path d="M0 0 C0.99 0 1.98 0 3 0 C2.52013969 5.56890517 1.70084819 10.67067568 0 16 C-0.66 16 -1.32 16 -2 16 C-1.43373374 11.30807954 -0.77701973 6.66211839 0 2 C0 1.34 0 0.68 0 0 Z " fill="#5DAFCB" transform="translate(607,514)"/>
<path d="M0 0 C0.66 0.66 1.32 1.32 2 2 C1.77870194 4.87687481 1.36521506 6.53951144 -0.4375 8.8125 C-2 10 -2 10 -4 10 C-3.43454163 6.04179141 -2.19097652 3.3340947 0 0 Z " fill="#56C3EA" transform="translate(566,501)"/>
<path d="M0 0 C1 3 1 3 0.0625 5.6875 C-2 8 -2 8 -3.984375 8.3203125 C-5.9924113 8.3131918 -7.99866294 8.16404402 -10 8 C-10 7.34 -10 6.68 -10 6 C-7.36 5.67 -4.72 5.34 -2 5 C-1.34 3.35 -0.68 1.7 0 0 Z " fill="#052231" transform="translate(581,580)"/>
<path d="M0 0 C2.375 0.3125 2.375 0.3125 5 1 C7 4 7 4 6.6875 7 C6 10 6 10 5 13 C4.34 13 3.68 13 3 13 C3.33 9.7 3.66 6.4 4 3 C2.68 2.34 1.36 1.68 0 1 C0 0.67 0 0.34 0 0 Z " fill="#061526" transform="translate(601,512)"/>
<path d="M0 0 C2.125 0.375 2.125 0.375 4 1 C3.360625 1.185625 2.72125 1.37125 2.0625 1.5625 C-0.42126213 2.94246056 -0.42126213 2.94246056 -0.75 6.625 C-0.8325 7.73875 -0.915 8.8525 -1 10 C-1.99 8.68 -2.98 7.36 -4 6 C-2.84826645 3.53199953 -1.95216435 1.95216435 0 0 Z " fill="#0A1F2C" transform="translate(546,512)"/>
<path d="M0 0 C1.32 0.66 2.64 1.32 4 2 C-0.296875 6.00390625 -0.296875 6.00390625 -2 7 C-3.32 6.67 -4.64 6.34 -6 6 C-4.02 4.02 -2.04 2.04 0 0 Z " fill="#5BACC6" transform="translate(543,505)"/>
<path d="M0 0 C5.445 1.485 5.445 1.485 11 3 C10.01 3.33 9.02 3.66 8 4 C8 4.66 8 5.32 8 6 C6.68 6 5.36 6 4 6 C3.34 5.01 2.68 4.02 2 3 C1.34 3 0.68 3 0 3 C0 2.01 0 1.02 0 0 Z " fill="#5CB0CC" transform="translate(593,574)"/>
<path d="M0 0 C0.66 0.33 1.32 0.66 2 1 C1.67 1.99 1.34 2.98 1 4 C0.01 4 -0.98 4 -2 4 C-2 4.66 -2 5.32 -2 6 C-3.98 6.66 -5.96 7.32 -8 8 C-6.88333826 4.65001479 -6.25305075 4.20659778 -3.4375 2.3125 C-2.79683594 1.87550781 -2.15617188 1.43851562 -1.49609375 0.98828125 C-1.00238281 0.66214844 -0.50867188 0.33601563 0 0 Z " fill="#59C3EA" transform="translate(546,507)"/>
<path d="M0 0 C1.44096586 0.42594588 2.87768712 0.86626633 4.3125 1.3125 C5.11300781 1.55613281 5.91351562 1.79976563 6.73828125 2.05078125 C9.09964573 3.04182023 10.33879993 4.08074943 12 6 C4.25 5.125 4.25 5.125 2 4 C2 3.34 2 2.68 2 2 C1.34 2 0.68 2 0 2 C0 1.34 0 0.68 0 0 Z " fill="#61B5CB" transform="translate(591,497)"/>
<path d="M0 0 C1.16959987 0.97566112 2.33561177 1.955625 3.5 2.9375 C4.1496875 3.48277344 4.799375 4.02804687 5.46875 4.58984375 C5.9740625 5.05519531 6.479375 5.52054688 7 6 C7 6.33 7 6.66 7 7 C4.69 7 2.38 7 0 7 C0 4.69 0 2.38 0 0 Z " fill="#030A15" transform="translate(536,577)"/>
<path d="M0 0 C1.32 0.33 2.64 0.66 4 1 C5.29243536 5.1196377 6.26252625 8.66831683 6 13 C4.1727089 10.25906335 3.06301822 7.86174676 1.875 4.8125 C1.52179687 3.91144531 1.16859375 3.01039063 0.8046875 2.08203125 C0.53914062 1.39496094 0.27359375 0.70789063 0 0 Z " fill="#010E1C" transform="translate(619,519)"/>
<path d="M0 0 C0.33 0 0.66 0 1 0 C1.0810206 2.10353495 1.13919907 4.20795952 1.1875 6.3125 C1.22230469 7.48425781 1.25710938 8.65601563 1.29296875 9.86328125 C1 13 1 13 -0.51171875 14.91796875 C-1.00285156 15.27503906 -1.49398437 15.63210938 -2 16 C-2.66 15.67 -3.32 15.34 -4 15 C-3.525625 14.195625 -3.05125 13.39125 -2.5625 12.5625 C-0.70640382 8.33060071 -0.29440022 4.56827922 0 0 Z " fill="#061D2B" transform="translate(597,541)"/>
<path d="M0 0 C0.66 0.33 1.32 0.66 2 1 C2.3125 4.3125 2.3125 4.3125 2 8 C-0.39740918 9.95578117 -1.87586608 11 -5 11 C-5 10.34 -5 9.68 -5 9 C-3.35 8.67 -1.7 8.34 0 8 C-0.33 7.01 -0.66 6.02 -1 5 C-0.5625 2.3125 -0.5625 2.3125 0 0 Z " fill="#0C293A" transform="translate(617,540)"/>
<path d="M0 0 C0.66 0 1.32 0 2 0 C1.67 2.64 1.34 5.28 1 8 C1.66 8 2.32 8 3 8 C2.67 8.66 2.34 9.32 2 10 C1.01 9.67 0.02 9.34 -1 9 C-1.09765625 2.84765625 -1.09765625 2.84765625 -1 1 C-0.67 0.67 -0.34 0.34 0 0 Z " fill="#052230" transform="translate(533,540)"/>
<path d="M0 0 C3.63 0 7.26 0 11 0 C11 0.99 11 1.98 11 3 C10.39671875 2.91621094 9.7934375 2.83242188 9.171875 2.74609375 C7.97304688 2.59333984 7.97304688 2.59333984 6.75 2.4375 C5.96109375 2.33308594 5.1721875 2.22867188 4.359375 2.12109375 C1.99467126 1.99972651 0.2488963 2.30366743 -2 3 C-1.34 2.67 -0.68 2.34 0 2 C0 1.34 0 0.68 0 0 Z " fill="#5CAFCE" transform="translate(544,511)"/>
<path d="M0 0 C3.96 0 7.92 0 12 0 C12 0.66 12 1.32 12 2 C12.66 2.33 13.32 2.66 14 3 C4.58997722 2.03644647 4.58997722 2.03644647 0 1 C0 0.67 0 0.34 0 0 Z " fill="#061624" transform="translate(576,493)"/>
<path d="M0 0 C0.99 0 1.98 0 3 0 C5.03684712 4.07369424 5.0257259 6.58937864 4 11 C3.67 11 3.34 11 3 11 C2.01 7.37 1.02 3.74 0 0 Z " fill="#61B6D3" transform="translate(541,555)"/>
<path d="M0 0 C2 3 2 3 1.75 6.5625 C1 10 1 10 -1 12 C-1.14285714 3.42857143 -1.14285714 3.42857143 0 0 Z " fill="#5EACC7" transform="translate(544,522)"/>
<path d="M0 0 C2.64 0 5.28 0 8 0 C8 0.33 8 0.66 8 1 C6.02 1 4.04 1 2 1 C1.34 3.31 0.68 5.62 0 8 C-0.66 7.67 -1.32 7.34 -2 7 C-1.34 4.69 -0.68 2.38 0 0 Z " fill="#102C3D" transform="translate(571,501)"/>
<path d="M0 0 C4 0 4 0 5.5625 1.375 C6.036875 1.91125 6.51125 2.4475 7 3 C7.99 3.66 8.98 4.32 10 5 C9.67 5.66 9.34 6.32 9 7 C7.4972763 6.02501855 5.99788037 5.04490611 4.5 4.0625 C3.6646875 3.51722656 2.829375 2.97195313 1.96875 2.41015625 C1.3190625 1.94480469 0.669375 1.47945312 0 1 C0 0.67 0 0.34 0 0 Z " fill="#68B8D2" transform="translate(544,583)"/>
<path d="M0 0 C0 0.66 0 1.32 0 2 C-0.99 2.33 -1.98 2.66 -3 3 C-3.33 3.66 -3.66 4.32 -4 5 C-5.98 5 -7.96 5 -10 5 C-7.31217681 1.88778367 -4.19734673 0 0 0 Z " fill="#66ABC8" transform="translate(618,549)"/>
<path d="M0 0 C1.32 0 2.64 0 4 0 C4.33 2.97 4.66 5.94 5 9 C2.67527795 6.14693203 1.2491742 3.45925163 0 0 Z " fill="#63B9D9" transform="translate(579,501)"/>
<path d="M0 0 C0.99 1.32 1.98 2.64 3 4 C1.02 4.66 -0.96 5.32 -3 6 C-3.66 5.01 -4.32 4.02 -5 3 C-3.35 2.01 -1.7 1.02 0 0 Z " fill="#041117" transform="translate(605,585)"/>
<path d="M0 0 C-2.35277269 2.72426311 -4.62496331 3.8141763 -8 5 C-8 4.01 -8 3.02 -8 2 C-4.77208445 -0.1519437 -3.71599191 -0.20086443 0 0 Z " fill="#63B6CE" transform="translate(603,586)"/>
<path d="M0 0 C3.86648272 1.04097612 7.49461443 2.03698408 11 4 C10.67 4.66 10.34 5.32 10 6 C6.7 4.35 3.4 2.7 0 1 C0 0.67 0 0.34 0 0 Z " fill="#61ACC6" transform="translate(608,535)"/>
<path d="M0 0 C0.66 0.33 1.32 0.66 2 1 C0.35830472 3.02054804 -1.30911778 5.02043058 -3 7 C-3.33 7 -3.66 7 -4 7 C-4 5.35 -4 3.7 -4 2 C-2.125 0.9375 -2.125 0.9375 0 0 Z " fill="#63B1D2" transform="translate(592,555)"/>
<path d="M0 0 C1.94268841 2.91403262 3.46395304 5.85808576 5 9 C3.0625 8.625 3.0625 8.625 1 8 C-0.35439668 5.29120665 -0.06501451 2.99066732 0 0 Z " fill="#03121A" transform="translate(553,550)"/>
<path d="M0 0 C0 3 0 3 0 3 Z M-2 3 C-1.34 3.66 -0.68 4.32 0 5 C-2.31 6.65 -4.62 8.3 -7 10 C-5.70700306 7.11562221 -4.34058637 5.12780579 -2 3 Z " fill="#D9D9D9" transform="translate(281,345)"/>
<path d="M0 0 C1.13757948 4.55031791 0.4283779 6.63084406 -1 11 C-1.66 10.67 -2.32 10.34 -3 10 C-2.01 6.7 -1.02 3.4 0 0 Z " fill="#02111E" transform="translate(624,557)"/>
<path d="M0 0 C0.66 0 1.32 0 2 0 C2.66 2.97 3.32 5.94 4 9 C3.34 9 2.68 9 2 9 C1.34 6.03 0.68 3.06 0 0 Z " fill="#051521" transform="translate(603,526)"/>
<path d="M0 0 C1.5625 1.75 1.5625 1.75 3 4 C2.6875 6.25 2.6875 6.25 2 8 C1.34 8 0.68 8 0 8 C0 5.36 0 2.72 0 0 Z " fill="#61AFC9" transform="translate(620,522)"/>
</svg>
