<?xml version="1.0" encoding="UTF-8"?>
<svg version="1.1" xmlns="http://www.w3.org/2000/svg" width="800" height="800">
<path d="M0 0 C264 0 528 0 800 0 C800 264 800 528 800 800 C536 800 272 800 0 800 C0 536 0 272 0 0 Z " fill="#000000" transform="translate(0,0)"/>
<path d="M0 0 C32.22176769 -0.25099977 64.443257 -0.44563664 96.66577402 -0.56171862 C100.47086918 -0.57547621 104.27596241 -0.58971378 108.08105469 -0.60424805 C109.21733119 -0.60857617 109.21733119 -0.60857617 110.37656277 -0.61299173 C122.63846051 -0.66084213 134.89979032 -0.74756349 147.16135126 -0.84868076 C159.74517254 -0.95158922 172.32869663 -1.01265496 184.91292143 -1.03497344 C192.67695084 -1.05005923 200.43937507 -1.09767934 208.20291024 -1.18708114 C214.15848264 -1.25216482 220.11323364 -1.25899735 226.06917191 -1.24418449 C228.51054896 -1.2472112 230.95198667 -1.26910067 233.39300156 -1.31126022 C252.83729373 -1.63062075 252.83729373 -1.63062075 257.18634415 2.42183113 C259.25852508 5.22302274 260.66207904 7.79628832 262 11 C262.7331543 12.04188477 263.46630859 13.08376953 264.22167969 14.15722656 C266.06723211 16.85294156 267.91100835 19.54980366 269.75 22.25 C270.39582031 23.19101563 271.04164063 24.13203125 271.70703125 25.1015625 C272.33480469 26.02195313 272.96257812 26.94234375 273.609375 27.890625 C274.16592773 28.70563477 274.72248047 29.52064453 275.29589844 30.36035156 C277.32845064 33.5087691 279.16361115 36.73341427 281 40 C280.18139999 40.01030746 279.36279999 40.02061493 278.51939392 40.03123474 C270.73916669 40.12991993 262.95900497 40.23252338 255.17888546 40.33933926 C251.18072292 40.39409824 247.18255277 40.44743324 243.18432617 40.49731445 C239.31334267 40.54566393 235.44243067 40.59801422 231.57153511 40.65294075 C230.10746648 40.6730502 228.64337852 40.69180738 227.17927361 40.70907402 C198.25474805 41.05367388 164.94757566 43.50535501 142.8671875 64.8125 C138.93291718 69.42168699 135.70817338 74.58365324 133 80 C133.61346189 79.98525131 134.22692377 79.97050262 134.85897541 79.95530701 C149.82517235 79.60108041 164.79007356 79.33678302 179.75938892 79.17100525 C186.99892533 79.08869006 194.23565503 78.97661102 201.47338867 78.79296875 C207.78629168 78.63286926 214.0971623 78.53013141 220.41203898 78.49458408 C223.75457971 78.47380735 227.08673577 78.41701623 230.42826271 78.30831909 C250.76206482 77.67339388 250.76206482 77.67339388 256.17892265 81.56565666 C259.73646582 85.28341857 262.0522036 89.43935758 264.12467957 94.11777306 C265.30478104 96.65537952 266.86950497 98.81289101 268.55859375 101.03515625 C269.29045898 102.06092773 269.29045898 102.06092773 270.03710938 103.10742188 C270.9966186 104.44698775 271.95763223 105.78547695 272.91992188 107.12304688 C273.63825195 108.13141602 273.63825195 108.13141602 274.37109375 109.16015625 C274.78286865 109.73386963 275.19464355 110.30758301 275.61889648 110.89868164 C277.55463138 113.84385933 279.25142581 116.93999517 281 120 C229.85 120 178.7 120 126 120 C133.45600025 148.33280093 141.492007 163.28677337 165.89453125 177.7109375 C179.83324531 185.22373276 194.1506267 187.74979273 209.75 188.25 C211.37913559 188.31792007 213.00820465 188.3874529 214.63720703 188.45849609 C219.75717011 188.67294187 224.87806087 188.84078234 230 189 C230.8811145 189.02815796 231.762229 189.05631592 232.67004395 189.08532715 C244.11208154 189.44979611 255.55480882 189.75393139 267 190 C267.25037871 194.88854805 267.4300673 199.77324174 267.54931641 204.66674805 C267.59909321 206.32463681 267.66695012 207.98209855 267.75439453 209.63842773 C268.28114465 219.88526679 267.8170745 226.89212442 260.9176178 234.83441162 C259.62996409 236.23985292 258.31583057 237.62090348 257 239 C255.98293766 240.26540444 254.97992504 241.542519 254.00390625 242.83984375 C253.19824219 243.86207031 252.39257812 244.88429688 251.5625 245.9375 C250.63537333 247.1145492 249.70829131 248.29163357 248.78125 249.46875 C248.32105469 250.05269531 247.86085938 250.63664063 247.38671875 251.23828125 C246.01582318 252.97989788 244.64800009 254.72387885 243.28125 256.46875 C238.5336043 262.5275039 233.75715183 268.56082914 228.9375 274.5625 C224.82205604 279.68854699 220.77819909 284.8616288 216.78881836 290.08618164 C213.58373235 294.27136164 210.30313558 298.39191182 207 302.5 C202.83965233 307.67548572 198.74437739 312.89312747 194.70996094 318.16723633 C191.30548835 322.61481876 187.85118214 327.0213951 184.38427734 331.42041016 C180.58758013 336.24188547 176.82356005 341.0881988 173.0625 345.9375 C168.18268407 352.22618318 163.24632084 358.46484134 158.25805664 364.66772461 C154.70364851 369.09633303 151.22866827 373.57973776 147.78369141 378.09375 C145.59787508 380.94911912 143.38639074 383.77973607 141.1328125 386.58203125 C140.43569153 387.45171036 140.43569153 387.45171036 139.7244873 388.33895874 C138.70931677 389.59153569 137.68156792 390.83410347 136.63726807 392.0625 C133.92273087 395.31381756 131.73524353 398.32514564 130.03369141 402.21557617 C127.5900292 407.26484326 124.95435123 411.16885153 120 414 C109.21353968 416.58477954 97.71784988 415.58279149 86.72668457 415.09863281 C82.5847196 414.93368098 78.44119111 414.86162004 74.296875 414.78125 C66.19360928 414.61064495 58.09798907 414.33836731 50 414 C51.6491083 410.55202999 53.60581764 407.87945295 56.0625 404.9375 C56.86816406 403.96683594 57.67382812 402.99617188 58.50390625 401.99609375 C59.32761719 401.00738281 60.15132813 400.01867187 61 399 C62.50196322 397.1682747 64.00200799 395.3349744 65.5 393.5 C68.5 389.83333333 71.5 386.16666667 74.5 382.5 C75.24765625 381.58605469 75.9953125 380.67210937 76.765625 379.73046875 C78.21297051 377.96177205 79.66085301 376.19351457 81.109375 374.42578125 C89.83009938 363.77949547 98.52981344 353.11596928 107.109375 342.35546875 C109.97300321 338.78776666 112.88000914 335.25587927 115.78125 331.71875 C117.87063426 329.15851858 119.93964482 326.58361998 122 324 C125.45400016 319.67062456 128.95317672 315.38032393 132.46484375 311.09765625 C137.09212681 305.44989366 141.68648153 299.77521965 146.28857422 294.10693359 C148.00516828 291.99363734 149.72308379 289.88142231 151.44140625 287.76953125 C158.22025518 279.44084857 158.22025518 279.44084857 164.9375 271.0625 C168.50851649 266.57989492 172.16024321 262.16635377 175.8125 257.75 C180.67332119 251.86922233 185.45187851 245.9352283 190.14306641 239.91845703 C194.34125835 234.53967118 198.65295341 229.2593897 203 224 C202.34217529 223.87471924 201.68435059 223.74943848 201.0065918 223.62036133 C170.30621777 217.7333864 141.52606034 210.9640911 116 192 C115.07960938 191.31679688 114.15921875 190.63359375 113.2109375 189.9296875 C108.51025984 186.30831952 104.42523552 182.55206603 100.640625 177.98046875 C99.56352472 176.68025484 98.44909078 175.40992063 97.296875 174.17578125 C84.11535584 160.01455458 75.06413268 139.99861 72 121 C71.42894531 121.01189865 70.85789062 121.0237973 70.26953125 121.03605652 C64.29865228 121.14956047 58.33081194 121.18533406 52.35888672 121.17700195 C50.13380258 121.18395635 47.90868733 121.21039973 45.68408203 121.25708008 C27.24540935 121.62420354 27.24540935 121.62420354 21.89282227 117.75244141 C19.8106611 114.91796029 18.39043774 112.22279546 17 109 C16.11760126 107.58813105 15.21240296 106.19005789 14.27734375 104.8125 C13.49310627 103.54430928 12.71310706 102.27348726 11.9375 101 C11.09557788 99.63248865 10.25312684 98.26530279 9.41015625 96.8984375 C9.00555176 96.24069336 8.60094727 95.58294922 8.18408203 94.90527344 C5.90920069 91.2448252 3.54251775 87.64319527 1.1796875 84.0390625 C0 82 0 82 0 80 C24.09 80 48.18 80 73 80 C73.99 76.04 74.98 72.08 76 68 C77.17717767 65.1466237 78.32810617 62.5221796 79.75 59.8125 C80.26844482 58.79796753 80.26844482 58.79796753 80.79736328 57.76293945 C83.64061626 52.3508963 87.04121872 47.65424285 91 43 C91.66 42.01 92.32 41.02 93 40 C92.17251755 40.0377504 91.3450351 40.07550079 90.49247742 40.11439514 C82.65327706 40.45653593 74.81661468 40.7145441 66.97163677 40.88080692 C62.93868321 40.96917905 58.91194277 41.08869845 54.88256836 41.2824707 C28.96030528 42.49651531 28.96030528 42.49651531 22.52963257 38.44271851 C18.71301924 34.58925018 16.64632265 30.14968347 14.80758667 25.10159302 C13.70643732 22.23605811 12.10752997 19.8446349 10.37109375 17.32421875 C9.39230518 15.77923082 8.41439154 14.23368812 7.4375 12.6875 C6.93154297 11.89150391 6.42558594 11.09550781 5.90429688 10.27539062 C5.41896484 9.50775391 4.93363281 8.74011719 4.43359375 7.94921875 C4.01134521 7.28237061 3.58909668 6.61552246 3.15405273 5.9284668 C1.9966284 3.99436593 0.99736109 2.02022657 0 0 Z " fill="#FCFCFC" transform="translate(414,159)"/>
<path d="M0 0 C1.15681799 0.00056958 1.15681799 0.00056958 2.33700603 0.00115067 C3.22377956 -0.00084038 4.11055308 -0.00283143 5.02419853 -0.00488281 C6.00958656 -0.00196997 6.99497458 0.00094287 8.01022285 0.00394398 C9.04829958 0.00308955 10.0863763 0.00223513 11.1559099 0.00135481 C14.66298294 -0.0003031 18.17000901 0.00522645 21.67707771 0.01067311 C24.17965643 0.01095494 26.68223524 0.01079732 29.18481392 0.0102306 C34.58742896 0.01000228 39.99002865 0.01285374 45.39264053 0.01846844 C53.20399405 0.02658118 61.01534173 0.02919843 68.82669901 0.03045643 C81.49883376 0.03264731 94.17096208 0.03930836 106.84309334 0.04875904 C119.15591853 0.05793224 131.46874198 0.06501352 143.7815699 0.06926686 C144.54000405 0.06952958 145.2984382 0.0697923 146.07985521 0.07006299 C149.88453866 0.07136799 153.68922213 0.0726317 157.4939056 0.07387489 C189.07832376 0.08424861 220.66273394 0.10194201 252.24714607 0.1241985 C251.451137 1.56420612 250.65425027 3.00372861 249.85699409 4.44304615 C249.41332213 5.24473225 248.96965017 6.04641834 248.51253361 6.87239796 C247.05435652 9.46727411 245.5097726 11.99102714 243.90730232 14.4991985 C243.31884529 15.42216725 242.73038826 16.345136 242.1240992 17.2960735 C241.2259449 18.69599537 241.2259449 18.69599537 240.30964607 20.1241985 C239.71474373 21.05747975 239.11984138 21.990761 238.5069117 22.9523235 C236.76250026 25.68237506 235.01475585 28.40909134 233.24714607 31.1241985 C232.91418525 31.88582798 232.58122444 32.64745747 232.2381739 33.43216664 C230.82746499 36.24167542 229.63355759 38.05954372 227.24714607 40.1241985 C222.09962487 41.39948606 217.04113267 41.17408777 211.78620857 41.00310475 C210.27024572 40.98630331 208.75423375 40.97349937 207.23820442 40.96451527 C203.26172686 40.93026771 199.28824248 40.84197654 195.31294197 40.74217945 C191.25105736 40.64985004 187.18868543 40.60895242 183.12605232 40.56365162 C175.16504827 40.46733616 167.2064702 40.31388828 159.24714607 40.1241985 C159.78839119 40.86387867 160.3296363 41.60355885 160.88728279 42.36565357 C161.95873543 43.83361378 161.95873543 43.83361378 163.05183357 45.33122975 C164.11120125 46.78106251 164.11120125 46.78106251 165.19197029 48.26018482 C171.37096917 56.87099925 179.24714607 69.12541663 179.24714607 80.1241985 C203.33714607 80.1241985 227.42714607 80.1241985 252.24714607 80.1241985 C250.95816211 83.3466584 249.9893571 85.76334404 248.21589607 88.585136 C247.82216804 89.21452076 247.42844002 89.84390553 247.02278084 90.49236256 C246.60182136 91.15461842 246.18086189 91.81687428 245.74714607 92.4991985 C245.31007332 93.19239186 244.87300056 93.88558522 244.42268318 94.59978443 C239.82397135 101.85719071 235.1010005 109.03489918 230.24714607 116.1241985 C229.58563797 117.19634602 229.58563797 117.19634602 228.91076607 118.29015309 C227.24714607 120.1241985 227.24714607 120.1241985 225.0641169 120.60521656 C223.79503738 120.59189289 223.79503738 120.59189289 222.5003199 120.57830006 C221.5395504 120.57799793 220.5787809 120.57769581 219.58889717 120.57738453 C218.55443962 120.55673939 217.51998207 120.53609425 216.45417732 120.5148235 C215.39301201 120.50916371 214.33184669 120.50350392 213.23852485 120.49767262 C209.84510872 120.47525992 206.45274372 120.42505298 203.05964607 120.3741985 C200.76083318 120.35413989 198.46200376 120.33588801 196.1631617 120.319511 C190.52413043 120.2753792 184.88571334 120.20841821 179.24714607 120.1241985 C179.2676905 121.1962151 179.28823494 122.2682317 179.30940193 123.37273365 C179.23494406 127.85947749 178.25098011 131.29657673 176.80964607 135.4991985 C176.41193001 136.66733082 176.41193001 136.66733082 176.00617927 137.85906178 C171.24026315 151.26852451 164.26102776 163.14061673 155.24714607 174.1241985 C154.67480232 174.84865162 154.10245857 175.57310475 153.51277107 176.319511 C148.77001982 182.07856608 143.10412947 186.54524494 137.24714607 191.1241985 C136.37702888 191.856386 135.5069117 192.5885735 134.61042732 193.3429485 C120.3438438 204.90274798 102.77538907 211.31336278 85.24714607 216.1241985 C84.56345955 216.31707447 83.87977302 216.50995045 83.17536873 216.70867115 C72.33496261 219.74060137 61.37563507 221.52750225 50.24714607 223.1241985 C50.24714607 226.01299512 51.60610285 227.02478509 53.43464607 229.2491985 C54.16683357 230.146386 54.89902107 231.0435735 55.65339607 231.9679485 C56.06589607 232.46939381 56.47839607 232.97083912 56.90339607 233.48747975 C58.34754025 235.24648094 59.78254184 237.01264495 61.21589607 238.7804485 C63.98769816 242.19893318 66.76401857 245.61371252 69.54157966 249.02751881 C72.27831086 252.39182564 75.01264157 255.75808178 77.74714607 259.1241985 C78.83046714 260.45754179 79.91380049 261.79087511 80.99714607 263.1241985 C100.49714607 287.1241985 119.99714607 311.1241985 139.49714607 335.1241985 C140.30176277 336.1144402 140.30176277 336.1144402 141.12263435 337.12468678 C142.20448719 338.456273 143.28619325 339.78797849 144.36775154 341.11980397 C147.09753715 344.48086791 149.82994824 347.83973468 152.56745857 351.194511 C157.72732492 357.52306502 162.85353 363.87036229 167.87214607 370.3116985 C172.31431428 376.00845733 176.92973183 381.53572226 181.61823982 387.0304485 C185.57052456 391.66625451 189.41029506 396.39278113 193.24714607 401.1241985 C194.00640388 402.04845631 194.7656617 402.97271412 195.54792732 403.92497975 C196.27366951 404.81572193 196.9994117 405.70646412 197.74714607 406.6241985 C198.39683357 407.418261 199.04652107 408.2123235 199.71589607 409.0304485 C201.24714607 411.1241985 201.24714607 411.1241985 202.24714607 414.1241985 C193.36351137 414.54398522 184.48335371 414.86236226 175.5919165 415.05681759 C171.46118989 415.15023136 167.33730828 415.27646936 163.21052498 415.48210865 C134.34453342 416.88294371 134.34453342 416.88294371 127.14021248 410.37126881 C123.93842807 406.66474403 121.55055441 402.65523983 119.36329597 398.28527027 C117.92458183 395.49965472 116.10306765 393.1823664 114.09870857 390.7804485 C113.55319343 390.07758717 113.0076783 389.37472584 112.4456324 388.65056568 C107.74169576 382.59274193 103.01942585 376.55358647 98.21198982 370.5773235 C90.85955956 361.39774854 83.66234545 352.09383545 76.44660896 342.80681568 C71.07228999 335.89245272 65.66509733 329.00439237 60.24714607 322.1241985 C54.22394943 314.4754105 48.22040111 306.81208146 42.24714607 299.1241985 C31.41867403 285.18789106 31.41867403 285.18789106 20.43464607 271.3741985 C16.71921749 266.74513993 13.0754065 262.06200049 9.43464607 257.3741985 C2.85115098 248.89745782 2.85115098 248.89745782 -3.75285393 240.4366985 C-4.38284294 239.62797291 -4.38284294 239.62797291 -5.02555901 238.80290943 C-7.47443986 235.59459063 -7.47443986 235.59459063 -10.38200432 232.82244068 C-13.77805848 229.86046864 -14.67471365 227.74586763 -15.24455315 223.21233326 C-15.4554263 218.38724243 -15.32447251 213.57466358 -15.19035393 208.7491985 C-15.16881069 207.05521985 -15.14990463 205.3612055 -15.1337133 203.66716725 C-14.96542984 191.33677441 -14.96542984 191.33677441 -13.75285393 190.1241985 C-11.76297961 189.99173445 -9.76851086 189.92791888 -7.77458245 189.89055592 C-6.49136605 189.86350071 -5.20814965 189.83644551 -3.8860479 189.80857044 C-3.19407877 189.79595362 -2.50210964 189.78333679 -1.78917176 189.77033764 C0.38776079 189.72929925 2.56435827 189.68006692 4.74105781 189.62818104 C10.93335737 189.48089727 17.1256512 189.3386921 23.31867927 189.22551686 C54.1075984 188.65141259 82.32384359 185.64463257 105.89558357 163.569511 C118.26427092 150.70771983 121.65347485 137.58014914 126.24714607 120.1241985 C75.09714607 120.1241985 23.94714607 120.1241985 -28.75285393 120.1241985 C-24.25103575 112.24601668 -24.25103575 112.24601668 -21.62785393 108.5616985 C-20.72873284 107.293261 -20.72873284 107.293261 -19.81144768 105.9991985 C-18.30440015 103.89447936 -16.79652838 101.7903629 -15.28801018 99.6866985 C-14.85826897 99.08672047 -14.42852776 98.48674244 -13.98576409 97.86858326 C-13.15253705 96.70636816 -12.31770525 95.545301 -11.48088127 94.38567311 C-11.08465569 93.83403492 -10.6884301 93.28239674 -10.28019768 92.71404225 C-9.88835856 92.1833636 -9.49651943 91.65268496 -9.0928064 91.10592514 C-7.69309499 89.12794034 -7.69309499 89.12794034 -6.60798508 86.84079796 C-4.68989554 83.2683712 -3.25011877 80.61760015 0.72381157 79.30804974 C3.86096555 79.01390453 6.88586953 79.0106381 10.03572029 79.10246998 C11.21677849 79.10115574 12.39783668 79.0998415 13.61468452 79.09848744 C16.84085107 79.10367119 20.06346841 79.14867509 23.28892988 79.21165305 C26.66401415 79.2680567 30.03917421 79.27321239 33.41465706 79.28388172 C39.8006245 79.31181483 46.18519921 79.38561063 52.57055432 79.47602713 C59.84242546 79.57675319 67.11436445 79.62613956 74.38675994 79.67128605 C89.34099697 79.76526743 104.29393201 79.92348702 119.24714607 80.1241985 C118.31675041 78.5428854 117.38236944 76.96391679 116.44636482 75.38591725 C115.9264698 74.50637379 115.40657478 73.62683033 114.87092537 72.72063404 C105.04485322 57.00866933 85.94466156 49.1298128 68.4715113 45.0328899 C48.5635479 40.66897942 28.70748561 40.58579974 8.42872566 40.45464283 C4.22421493 40.42439233 0.01988143 40.3780206 -4.18449455 40.33318287 C-12.37385875 40.24813407 -20.56324082 40.18036273 -28.75285393 40.1241985 C-24.52695053 32.64365214 -24.52695053 32.64365214 -22.34269768 29.50310475 C-21.91521233 28.88507984 -21.48772698 28.26705494 -21.04728752 27.63030201 C-20.59949944 26.98891285 -20.15171135 26.34752369 -19.69035393 25.6866985 C-18.7227816 24.2909514 -17.75533774 22.89511524 -16.78801018 21.4991985 C-16.04381829 20.42798756 -16.04381829 20.42798756 -15.28459221 19.335136 C-13.72377954 17.08223201 -12.1723849 14.82312353 -10.62394768 12.5616985 C-10.1219384 11.8287859 -9.61992913 11.0958733 -9.10270745 10.34075123 C-8.13263648 8.9239434 -7.16305859 7.50679781 -6.19401604 6.08928639 C-2.11966757 0.15018908 -2.11966757 0.15018908 0 0 Z " fill="#FCFCFC" transform="translate(124.75285392999649,158.8758015036583)"/>
<path d="M0 0 C3.5 0.5 3.5 0.5 5.1949802 2.05121088 C6.98241715 5.40522601 6.91463174 8.47315157 6.88031673 12.18062592 C6.88497665 12.96238318 6.88963657 13.74414044 6.8944377 14.54958731 C6.9064462 17.18504136 6.8969699 19.81998543 6.88768005 22.45544434 C6.89185041 24.35758196 6.89732627 26.2597171 6.90399987 28.16184759 C6.91851225 33.4012625 6.91419173 38.64052088 6.90683305 43.87994456 C6.902118 49.52555383 6.9145964 55.17112841 6.92485046 60.81672668 C6.94207612 71.8813841 6.94287074 82.94598483 6.93763756 94.01065218 C6.93360189 103.00032734 6.93503223 111.98998569 6.94038582 120.97966003 C6.94113424 122.25740471 6.94188266 123.53514939 6.94265376 124.85161361 C6.94418518 127.44704156 6.94572353 130.0424695 6.94726873 132.63789743 C6.95710255 150.0726301 6.96125586 167.50735179 6.95364285 184.94208527 C6.95319709 185.96513573 6.95319709 185.96513573 6.95274232 187.00885388 C6.95029327 192.54780815 6.94768174 198.08676234 6.94505819 203.62571653 C6.93495366 225.23634703 6.94331377 246.84689986 6.96655273 268.45751953 C6.99260719 292.72573902 7.00542871 316.99389812 6.99836498 341.26213503 C6.99486561 354.11612134 6.99715212 366.97004384 7.01461601 379.82402039 C7.02929665 390.76549093 7.03002773 401.70685272 7.0125451 412.64832103 C7.00399882 418.23459757 7.00197365 423.8206795 7.01719666 429.40694618 C7.03094603 434.51552491 7.02640731 439.62374052 7.00695742 444.73229772 C7.00316695 446.58553341 7.006206 448.43879751 7.01656907 450.2920081 C7.02961028 452.8015748 7.01827221 455.30986403 7.00057125 457.81937408 C7.01022176 458.54732589 7.01987227 459.27527769 7.02981523 460.02528864 C6.98009173 463.43316703 6.72348106 465.20813463 4.6249643 467.94878912 C2.5 469.5 2.5 469.5 0 470 C-3.39583185 469.32083363 -4.39805608 468.24513034 -6.5 465.5 C-6.8912851 462.80291781 -7.03630204 460.51459804 -7.00057125 457.81937408 C-7.00608542 457.03761682 -7.01159958 456.25585956 -7.01728085 455.45041269 C-7.03094239 452.81481067 -7.01594351 450.18014098 -7.00120544 447.54455566 C-7.00509593 445.64241701 -7.01073434 443.74028126 -7.01797634 441.83815241 C-7.03278523 436.59868398 -7.02251755 431.35951442 -7.00823963 426.12005544 C-6.99716452 420.47444607 -7.00906094 414.82887982 -7.01808167 409.18327332 C-7.03203979 398.11859173 -7.02443897 387.05402401 -7.00940608 375.98934782 C-6.99257613 363.1135924 -6.99575243 350.23786558 -6.99950016 337.36210257 C-7.00556133 313.69946682 -6.9897581 290.036902 -6.96431253 266.37428347 C-6.94119671 244.76366336 -6.93580894 223.15311015 -6.94604492 201.54248047 C-6.94864684 196.00901543 -6.95123182 190.47555039 -6.95364285 184.94208527 C-6.95394029 184.26089428 -6.95423774 183.57970329 -6.9545442 182.87787015 C-6.96215555 164.83119849 -6.95569101 146.7845348 -6.94494683 128.73786497 C-6.94342093 126.15179666 -6.94190057 123.56572835 -6.94038582 120.97966003 C-6.939628 119.707148 -6.93887019 118.43463597 -6.93808941 117.12356296 C-6.9333398 108.14103007 -6.93520281 99.15851228 -6.93945122 90.17597961 C-6.94436977 79.23451767 -6.9384298 68.29312501 -6.91855692 57.35167897 C-6.90866184 51.76543726 -6.90360365 46.17930122 -6.91144943 40.59305382 C-6.91847766 35.48452262 -6.9117689 30.37620518 -6.8938458 25.26770228 C-6.88978267 23.41446957 -6.89083215 21.56121755 -6.89736467 19.7079919 C-6.90545657 17.19861063 -6.89527444 14.68995986 -6.88031673 12.18062592 C-6.88705439 11.45267411 -6.89379204 10.72472231 -6.90073386 9.97471136 C-6.86523491 6.91802412 -6.64366921 4.76958642 -5.1949802 2.05121088 C-3.5 0.5 -3.5 0.5 0 0 Z " fill="#EBEBEB" transform="translate(395.5,128.5)"/>
<path d="M0 0 C3.83493724 3.0233945 6.15737183 5.98176385 7.9453125 10.609375 C7.9453125 11.269375 7.9453125 11.929375 7.9453125 12.609375 C4.84328702 13.04365857 2.03365748 13.19859871 -1.0546875 12.609375 C-2.89668825 11.02320769 -4.16757766 9.31313115 -5.6171875 7.3671875 C-8.7010122 3.59620621 -12.28676498 2.80445611 -16.88671875 2.296875 C-23.33205944 2.0374399 -28.96763365 2.33806252 -34.0546875 6.609375 C-39.72018408 13.36582059 -41.4444583 18.94679191 -41.328125 27.66015625 C-40.72739343 34.13947534 -38.54714622 39.63989764 -33.7421875 44.109375 C-28.51860596 48.03537896 -22.76675307 49.11082378 -16.3359375 49.01171875 C-12.8971832 48.40522613 -10.47486315 46.73313911 -7.68359375 44.703125 C-6.0546875 43.609375 -6.0546875 43.609375 -4.0546875 43.609375 C-3.3946875 41.959375 -2.7346875 40.309375 -2.0546875 38.609375 C1.2453125 38.609375 4.5453125 38.609375 7.9453125 38.609375 C6.64551493 44.53067506 3.62087567 47.97478627 -1.0546875 51.609375 C-9.4035918 56.27576596 -18.08261396 58.08632516 -27.5625 56.078125 C-37.31590813 53.03638416 -44.01267751 47.0064895 -48.9921875 38.171875 C-51.78804703 29.20035107 -51.45479205 18.40862966 -47.4921875 9.921875 C-44.71783536 5.14527815 -41.64221801 1.66772868 -37.0546875 -1.390625 C-35.724375 -2.2878125 -35.724375 -2.2878125 -34.3671875 -3.203125 C-24.02953722 -8.51164812 -9.29005813 -6.28756786 0 0 Z " fill="#E1A233" transform="translate(502.0546875,604.390625)"/>
<path d="M0 0 C20 0 20 0 26 3 C28.66823957 7.00235935 28.71357255 10.29381916 28 15 C26.125 17.5625 26.125 17.5625 24 19 C23.34 19 22.68 19 22 19 C22 19.66 22 20.32 22 21 C22.598125 21.0825 23.19625 21.165 23.8125 21.25 C26.7966964 22.27315305 27.55760527 23.18733027 29 26 C29.65452534 31.07257139 29.62504104 32.97720557 26.9375 37.375 C19.25997099 44.2357706 9.9393104 42 0 42 C0 28.14 0 14.28 0 0 Z " fill="#F5F5F5" transform="translate(586,619)"/>
<path d="M0 0 C11.55 0 23.1 0 35 0 C35 2.31 35 4.62 35 7 C26.09 7 17.18 7 8 7 C8 13.6 8 20.2 8 27 C15.26 27 22.52 27 30 27 C30 29.31 30 31.62 30 34 C22.74 34 15.48 34 8 34 C8 42.91 8 51.82 8 61 C5.36 61 2.72 61 0 61 C0 40.87 0 20.74 0 0 Z " fill="#C59945" transform="translate(172,599)"/>
<path d="M0 0 C2.31 0 4.62 0 7 0 C10.17692187 7.75556254 13.11554327 15.59468232 16.00146484 23.46191406 C16.75931113 25.52535202 17.52217983 27.58689178 18.28515625 29.6484375 C18.76853504 30.96342927 19.25161918 32.2785294 19.734375 33.59375 C20.16975586 34.77646484 20.60513672 35.95917969 21.05371094 37.17773438 C22 40 22 40 22 42 C20.02 42 18.04 42 16 42 C13 35.375 13 35.375 13 32 C6.73 32 0.46 32 -6 32 C-6.66 34.97 -7.32 37.94 -8 41 C-9.98 41 -11.96 41 -14 41 C-13.35430955 35.92522209 -11.86300277 31.50550366 -10.05859375 26.7578125 C-9.77146011 25.98944061 -9.48432648 25.22106873 -9.18849182 24.42941284 C-8.27657649 21.99266693 -7.35716611 19.55882981 -6.4375 17.125 C-5.81525689 15.46633269 -5.19350681 13.80748033 -4.57226562 12.1484375 C-3.05387506 8.09679432 -1.52875941 4.04774159 0 0 Z " fill="#F5F5F5" transform="translate(283,619)"/>
<path d="M0 0 C6 0 6 0 7.66015625 1.484375 C8.12292969 2.23203125 8.58570313 2.9796875 9.0625 3.75 C9.63226563 4.63945313 10.20203125 5.52890625 10.7890625 6.4453125 C11.12067383 6.98188477 11.45228516 7.51845703 11.79394531 8.07128906 C13.80140183 11.28159402 15.89101229 14.43827347 17.96630859 17.60498047 C20.65745895 21.72803347 23.3263899 25.86555139 26 30 C26.33 20.1 26.66 10.2 27 0 C28.98 0 30.96 0 33 0 C33 13.86 33 27.72 33 42 C31.02 42 29.04 42 27 42 C25.0859375 40.0078125 25.0859375 40.0078125 23.375 37.125 C22.71242187 36.04992187 22.04984375 34.97484375 21.3671875 33.8671875 C21.00077148 33.26100586 20.63435547 32.65482422 20.25683594 32.03027344 C17.78160003 28.03181544 15.12142349 24.153418 12.5 20.25 C9.7775 16.16625 9.7775 16.16625 7 12 C6.67 21.9 6.34 31.8 6 42 C4.02 42 2.04 42 0 42 C0 28.14 0 14.28 0 0 Z " fill="#ECECEC" transform="translate(229,619)"/>
<path d="M0 0 C6 0 6 0 7.66015625 1.484375 C8.12292969 2.23203125 8.58570313 2.9796875 9.0625 3.75 C9.63226563 4.63945313 10.20203125 5.52890625 10.7890625 6.4453125 C11.12067383 6.98188477 11.45228516 7.51845703 11.79394531 8.07128906 C13.80140183 11.28159402 15.89101229 14.43827347 17.96630859 17.60498047 C20.65745895 21.72803347 23.3263899 25.86555139 26 30 C26.33 20.1 26.66 10.2 27 0 C28.98 0 30.96 0 33 0 C33 13.86 33 27.72 33 42 C31.02 42 29.04 42 27 42 C25.06466179 39.79933316 23.7174422 37.92445728 22.25 35.4375 C21.39387083 34.0699106 20.53707916 32.70273575 19.6796875 31.3359375 C19.24366211 30.6253418 18.80763672 29.91474609 18.35839844 29.18261719 C16.11860925 25.5838186 13.74064728 22.07921463 11.375 18.5625 C9.93125 16.396875 8.4875 14.23125 7 12 C6.67 21.9 6.34 31.8 6 42 C4.02 42 2.04 42 0 42 C0 28.14 0 14.28 0 0 Z " fill="#EFEFEF" transform="translate(311,619)"/>
<path d="M0 0 C2.70532598 1.81177853 4.5070326 3.61193415 6.140625 6.43359375 C6.140625 7.42359375 6.140625 8.41359375 6.140625 9.43359375 C3.453125 9.74609375 3.453125 9.74609375 0.140625 9.43359375 C-2.421875 7.05859375 -2.421875 7.05859375 -4.859375 4.43359375 C-8.86223395 2.22148749 -12.32950787 1.95676563 -16.859375 2.43359375 C-21.94581301 5.17244498 -25.02941527 7.94371455 -26.859375 13.43359375 C-27.24991733 19.2917287 -26.79260095 23.17401619 -23.859375 28.43359375 C-19.21476583 32.73835347 -16.28548862 33.73160163 -10.11328125 33.65234375 C-7.0234848 33.35246749 -5.24331425 32.39683784 -2.859375 30.43359375 C-2.405625 29.71171875 -1.951875 28.98984375 -1.484375 28.24609375 C0.140625 26.43359375 0.140625 26.43359375 3.828125 26.18359375 C4.92125 26.26609375 6.014375 26.34859375 7.140625 26.43359375 C4.72697759 32.19952922 1.48656682 35.8518758 -4.22265625 38.55078125 C-10.08693762 40.51422953 -16.5823767 40.38255882 -22.234375 37.80859375 C-27.97649908 34.45021443 -31.30230618 29.65989782 -33.3515625 23.4296875 C-35.11108238 16.5134209 -33.27907213 10.50305619 -29.859375 4.43359375 C-21.58586722 -5.1142695 -10.79307102 -5.99049382 0 0 Z " fill="#ECECEC" transform="translate(383.859375,621.56640625)"/>
<path d="M0 0 C1.65 0 3.3 0 5 0 C5.01458252 0.85231201 5.02916504 1.70462402 5.04418945 2.58276367 C5.10543285 5.76071175 5.17962029 8.93802546 5.26245117 12.11547852 C5.29559806 13.48775958 5.32366171 14.86017362 5.34643555 16.23266602 C5.38016766 18.21137766 5.4340149 20.18971376 5.48828125 22.16796875 C5.51446533 23.35672607 5.54064941 24.5454834 5.56762695 25.77026367 C6.0389391 29.29086691 6.87538493 31.17919046 9 34 C12.7373856 36.4915904 14.57331583 36.45793285 19 36 C22.38939556 33.86320715 23.72582557 32.8225233 25 29 C25.15109093 26.79040747 25.24873801 24.57699953 25.31640625 22.36328125 C25.35830078 21.06455078 25.40019531 19.76582031 25.44335938 18.42773438 C25.48316987 17.05599239 25.52288216 15.68424756 25.5625 14.3125 C25.60570835 12.92902355 25.64932339 11.54555973 25.69335938 10.16210938 C25.79958028 6.77484281 25.90162358 3.38750201 26 0 C27.65 0 29.3 0 31 0 C31.14915437 4.57139018 31.25758516 9.1413423 31.32958984 13.71459961 C31.35962575 15.26758517 31.400469 16.82040303 31.45263672 18.37280273 C31.92969011 32.9416391 31.92969011 32.9416391 28.15234375 37.46875 C23.51803684 41.74105769 18.29362806 42.46441211 12.1796875 42.3203125 C7.78852211 41.67501579 5.02799708 39.16978978 2.1875 35.9375 C-0.25991941 31.94434201 -0.11635197 28.50623179 -0.09765625 23.92578125 C-0.0962413 23.2419487 -0.09482635 22.55811615 -0.09336853 21.8535614 C-0.08777876 19.67316278 -0.07522822 17.49286749 -0.0625 15.3125 C-0.05748367 13.83268378 -0.052921 12.35286594 -0.04882812 10.87304688 C-0.03781271 7.24866443 -0.02055512 3.6243423 0 0 Z " fill="#FAFAFA" transform="translate(546,619)"/>
<path d="M0 0 C7.26 0 14.52 0 22 0 C22 1.32 22 2.64 22 4 C16.39 4 10.78 4 5 4 C5 8.62 5 13.24 5 18 C9.95 18 14.9 18 20 18 C20 19.65 20 21.3 20 23 C15.05 23 10.1 23 5 23 C5 27.62 5 32.24 5 37 C10.61 37 16.22 37 22 37 C22 38.32 22 39.64 22 41 C14.74 41 7.48 41 0 41 C0 27.47 0 13.94 0 0 Z " fill="#FDFDFD" transform="translate(399,619)"/>
<path d="M0 0 C2.54232342 -0.08152344 5.08199202 -0.14073716 7.625 -0.1875 C8.33785156 -0.21263672 9.05070313 -0.23777344 9.78515625 -0.26367188 C14.59923324 -0.32992064 17.83794702 0.31903794 22 3 C24.66685178 7.00027767 24.70794597 10.29784035 24 15 C22.3125 17.125 22.3125 17.125 20 18 C17.375 17.625 17.375 17.625 15 17 C14.34 17.33 13.68 17.66 13 18 C10.95944995 18.07065617 8.91665743 18.08421976 6.875 18.0625 C5.77929688 18.05347656 4.68359375 18.04445313 3.5546875 18.03515625 C2.71164062 18.02355469 1.86859375 18.01195312 1 18 C0.83210874 15.56257869 0.66563867 13.12507454 0.5 10.6875 C0.45230469 9.99720703 0.40460937 9.30691406 0.35546875 8.59570312 C0.16120511 5.72337641 0 2.87986212 0 0 Z " fill="#E0E0E0" transform="translate(590,619)"/>
<path d="M0 0 C1.25683594 0.00322266 2.51367188 0.00644531 3.80859375 0.00976562 C5.12730469 0.01814453 6.44601563 0.02652344 7.8046875 0.03515625 C9.14452961 0.04017136 10.4843735 0.04473424 11.82421875 0.04882812 C15.10941956 0.06064539 18.39453147 0.07712008 21.6796875 0.09765625 C21.6796875 1.08765625 21.6796875 2.07765625 21.6796875 3.09765625 C9.3046875 3.59265625 9.3046875 3.59265625 -3.3203125 4.09765625 C-3.6503125 11.35765625 -3.9803125 18.61765625 -4.3203125 26.09765625 C-3.6603125 26.42765625 -3.0003125 26.75765625 -2.3203125 27.09765625 C-2.6709375 27.59265625 -3.0215625 28.08765625 -3.3828125 28.59765625 C-4.50863936 31.59986122 -4.02307098 33.7259661 -3.5847168 36.84228516 C-3.14756492 40.57119471 -3.17569635 44.28520286 -3.1953125 48.03515625 C-3.19144531 48.80150391 -3.18757812 49.56785156 -3.18359375 50.35742188 C-3.19353788 55.97088163 -3.19353788 55.97088163 -4.3203125 57.09765625 C-5.98648365 57.13829457 -7.65419345 57.14037725 -9.3203125 57.09765625 C-9.34570637 50.08675918 -9.36319786 43.07587402 -9.37524414 36.06494141 C-9.38026709 33.68082231 -9.38708663 31.29670629 -9.39575195 28.91259766 C-9.40790674 25.48208863 -9.41356127 22.05162041 -9.41796875 18.62109375 C-9.42313004 17.5583725 -9.42829132 16.49565125 -9.43360901 15.40072632 C-9.43437043 5.31393703 -9.43437043 5.31393703 -8.3203125 1.09765625 C-5.50207058 -0.31146471 -3.14779968 -0.01417928 0 0 Z " fill="#E2A12E" transform="translate(182.3203125,600.90234375)"/>
<path d="M0 0 C0.33 0 0.66 0 1 0 C1.33 3.96 1.66 7.92 2 12 C2.33 12 2.66 12 3 12 C3.23783203 12.88751953 3.23783203 12.88751953 3.48046875 13.79296875 C5.91138393 22.02584725 10.71906002 26.64836843 18 31 C20.3727086 31.92466753 20.3727086 31.92466753 23 32 C23.66902344 32.07347656 24.33804687 32.14695312 25.02734375 32.22265625 C30.64936046 32.59745736 33.83201773 31.3948962 38.37109375 28.09375 C40 27 40 27 42 27 C42.495 25.515 42.495 25.515 43 24 C44.98 23.67 46.96 23.34 49 23 C49.625 25.375 49.625 25.375 50 28 C49.34 28.66 48.68 29.32 48 30 C47.01 30 46.02 30 45 30 C44.67 31.32 44.34 32.64 44 34 C42.35 34 40.7 34 39 34 C39 34.66 39 35.32 39 36 C34.29538677 37.86132673 30.1242304 38.2509496 25.125 38.125 C24.43664062 38.11597656 23.74828125 38.10695313 23.0390625 38.09765625 C21.35922162 38.07432513 19.67956254 38.03846326 18 38 C17.67 37.01 17.34 36.02 17 35 C14.89415562 34.19436362 14.89415562 34.19436362 12.4375 33.8125 C11.19806641 33.57466797 11.19806641 33.57466797 9.93359375 33.33203125 C9.29550781 33.22246094 8.65742188 33.11289062 8 33 C8 32.34 8 31.68 8 31 C7.38125 30.7525 6.7625 30.505 6.125 30.25 C3.64931313 28.79371361 3.04874998 27.62187494 2 25 C2.66 25 3.32 25 4 25 C4 24.01 4 23.02 4 22 C3.34 22 2.68 22 2 22 C2 21.34 2 20.68 2 20 C1.34 20 0.68 20 0 20 C0 17.36 0 14.72 0 12 C-0.66 12 -1.32 12 -2 12 C-2 9.03 -2 6.06 -2 3 C-1.34 3 -0.68 3 0 3 C0 2.01 0 1.02 0 0 Z " fill="#E1A12E" transform="translate(456,621)"/>
<path d="M0 0 C1.98 0 3.96 0 6 0 C6 12.21 6 24.42 6 37 C10.62 37 15.24 37 20 37 C20 38.65 20 40.3 20 42 C13.4 42 6.8 42 0 42 C0 28.14 0 14.28 0 0 Z " fill="#ECECEC" transform="translate(520,619)"/>
<path d="M0 0 C0.66 0 1.32 0 2 0 C2 20.13 2 40.26 2 61 C4.64 61 7.28 61 10 61 C10 52.09 10 43.18 10 34 C16.93 34 23.86 34 31 34 C31 34.33 31 34.66 31 35 C25.06 35.66 19.12 36.32 13 37 C12.97305014 40.91671256 12.95318497 44.83323999 12.9375 48.75 C12.92912109 49.86117187 12.92074219 50.97234375 12.91210938 52.1171875 C12.90888672 53.18710937 12.90566406 54.25703125 12.90234375 55.359375 C12.89710693 56.34389648 12.89187012 57.32841797 12.88647461 58.34277344 C12.921822 61.25651797 12.921822 61.25651797 14 65 C10.7 64.67 7.4 64.34 4 64 C4 64.33 4 64.66 4 65 C2.02 65 0.04 65 -2 65 C-2.125 59.25 -2.125 59.25 -1 57 C-0.88042526 55.18281916 -0.8227532 53.36142165 -0.79467773 51.54052734 C-0.7647599 49.82897964 -0.7647599 49.82897964 -0.73423767 48.08285522 C-0.71752518 46.84637238 -0.70081268 45.60988953 -0.68359375 44.3359375 C-0.66281265 43.07359283 -0.64203156 41.81124817 -0.62062073 40.51065063 C-0.56622074 37.15367955 -0.51599764 33.79669811 -0.46777344 30.43963623 C-0.41754958 27.01438935 -0.36186814 23.58923171 -0.30664062 20.1640625 C-0.19938141 13.44277939 -0.0976256 6.72142956 0 0 Z " fill="#130202" transform="translate(170,599)"/>
<path d="M0 0 C6.76459784 3.8683478 10.64928783 8.25076836 12.76171875 15.8203125 C5.09235166 16.72259098 5.09235166 16.72259098 2.05078125 14.66015625 C-0.14152258 12.1827262 -1.19342847 10.23295811 -1.55078125 6.9453125 C-1.44765625 6.2440625 -1.34453125 5.5428125 -1.23828125 4.8203125 C-9.08371728 3.32594373 -19.09719251 1.81433589 -26.23828125 5.8203125 C-27.22828125 5.8203125 -28.21828125 5.8203125 -29.23828125 5.8203125 C-29.89828125 7.1403125 -30.55828125 8.4603125 -31.23828125 9.8203125 C-31.89828125 9.8203125 -32.55828125 9.8203125 -33.23828125 9.8203125 C-33.56828125 10.4803125 -33.89828125 11.1403125 -34.23828125 11.8203125 C-34.89828125 10.5003125 -35.55828125 9.1803125 -36.23828125 7.8203125 C-27.17181583 -1.86714371 -12.41382357 -4.52228555 0 0 Z " fill="#E2A12E" transform="translate(497.23828125,601.1796875)"/>
<path d="M0 0 C2.31 0 4.62 0 7 0 C7.33 1.65 7.66 3.3 8 5 C7.01 4.67 6.02 4.34 5 4 C4.62875 5.175625 4.2575 6.35125 3.875 7.5625 C1.57445174 14.49748605 -1.24619739 21.23580524 -4 28 C-3.34 28.33 -2.68 28.66 -2 29 C-2.66 29 -3.32 29 -4 29 C-4 29.99 -4 30.98 -4 32 C-4.66 32 -5.32 32 -6 32 C-6.66 34.97 -7.32 37.94 -8 41 C-9.98 41 -11.96 41 -14 41 C-13.35430955 35.92522209 -11.86300277 31.50550366 -10.05859375 26.7578125 C-9.77146011 25.98944061 -9.48432648 25.22106873 -9.18849182 24.42941284 C-8.27657649 21.99266693 -7.35716611 19.55882981 -6.4375 17.125 C-5.81525689 15.46633269 -5.19350681 13.80748033 -4.57226562 12.1484375 C-3.05387506 8.09679432 -1.52875941 4.04774159 0 0 Z " fill="#F1F1F1" transform="translate(283,619)"/>
<path d="M0 0 C1.98 0 3.96 0 6 0 C6 13.86 6 27.72 6 42 C4.02 42 2.04 42 0 42 C0 28.14 0 14.28 0 0 Z " fill="#E9E9E9" transform="translate(214,619)"/>
<path d="M0 0 C12.20760475 -0.49323656 12.20760475 -0.49323656 15.88671875 1.796875 C18 4 18 4 18.625 7.5 C18 11 18 11 15.88671875 13.203125 C10.83684177 16.3464855 5.81899824 15.23511104 0 15 C0 10.05 0 5.1 0 0 Z " fill="#161616" transform="translate(591,641)"/>
<path d="M0 0 C1.65 0 3.3 0 5 0 C5 13.86 5 27.72 5 42 C3.02 42 1.04 42 -1 42 C-3.56264345 38.90715445 -4.43761722 35.93667948 -5 32 C-3.35 32 -1.7 32 0 32 C0 21.44 0 10.88 0 0 Z " fill="#F2F2F2" transform="translate(257,619)"/>
<path d="M0 0 C2.10388569 -0.05402274 4.20816714 -0.09280256 6.3125 -0.125 C8.07013672 -0.15980469 8.07013672 -0.15980469 9.86328125 -0.1953125 C13 0 13 0 16 2 C16.6533282 7.98884186 16.6533282 7.98884186 14.89453125 10.7109375 C12.05738299 12.64136827 9.69519606 12.28797612 6.3125 12.1875 C4.54326172 12.14689453 4.54326172 12.14689453 2.73828125 12.10546875 C1.83464844 12.07066406 0.93101562 12.03585937 0 12 C0 8.04 0 4.08 0 0 Z " fill="#040404" transform="translate(592,624)"/>
<path d="M0 0 C1.65 0 3.3 0 5 0 C5.33 11.55 5.66 23.1 6 35 C5.01 35.495 5.01 35.495 4 36 C1 34 1 34 0 31 C-0.08397157 28.64319787 -0.10728187 26.28405919 -0.09765625 23.92578125 C-0.0962413 23.2419487 -0.09482635 22.55811615 -0.09336853 21.8535614 C-0.08777876 19.67316278 -0.07522822 17.49286749 -0.0625 15.3125 C-0.05748367 13.83268378 -0.052921 12.35286594 -0.04882812 10.87304688 C-0.03781271 7.24866443 -0.02055512 3.6243423 0 0 Z " fill="#FCFCFC" transform="translate(546,619)"/>
<path d="M0 0 C2.83556803 2.83556803 3.77445029 6.30375868 5.125 10 C5.40214844 10.73734375 5.67929687 11.4746875 5.96484375 12.234375 C8 17.72829433 8 17.72829433 8 20 C3.05 20 -1.9 20 -7 20 C-5.04068712 13.14240492 -2.75665244 6.57678502 0 0 Z " fill="#191919" transform="translate(286,627)"/>
<path d="M0 0 C0.66 0 1.32 0 2 0 C3.40234375 2.1171875 3.40234375 2.1171875 4.9375 4.875 C6.82363188 8.26135443 7.7220881 9.8147254 11 12 C11 12.66 11 13.32 11 14 C11.928125 14.144375 12.85625 14.28875 13.8125 14.4375 C17 15 17 15 20 16 C20.33 16.66 20.66 17.32 21 18 C23.37507855 18.02719556 25.74983964 18.04693247 28.125 18.0625 C28.79015625 18.07087891 29.4553125 18.07925781 30.140625 18.08789062 C34.20681354 18.10782292 38.0120092 17.78890161 42 17 C42 16.34 42 15.68 42 15 C43.98 14.34 45.96 13.68 48 13 C48 12.34 48 11.68 48 11 C48.66 10.34 49.32 9.68 50 9 C50.99 9 51.98 9 53 9 C52.505 7.02 52.505 7.02 52 5 C50.35 5 48.7 5 47 5 C47 4.34 47 3.68 47 3 C50.3 3 53.6 3 57 3 C55.70020243 8.92130006 52.67556317 12.36541127 48 16 C39.6510957 20.66639096 30.97207354 22.47695016 21.4921875 20.46875 C13.08782491 17.84772845 7.14849329 13.09106464 2 6 C0.5625 2.5 0.5625 2.5 0 0 Z " fill="#C89E50" transform="translate(453,640)"/>
<path d="M0 0 C2.49361571 1.20381448 4.68143083 2.45428722 7 4 C12.02539212 4.46531409 14.90578839 3.97760844 19 1 C19 1.99 19 2.98 19 4 C19.99 4.33 20.98 4.66 22 5 C18.70986694 8.64264732 16.65236622 9.70582847 11.8515625 10.23828125 C6.36805095 10.42106497 3.32736295 9.69409032 -1 6 C-1.66 5.01 -2.32 4.02 -3 3 C-2.01 3 -1.02 3 0 3 C0 2.01 0 1.02 0 0 Z " fill="#ECECEC" transform="translate(551,651)"/>
<path d="M0 0 C-0.33 1.32 -0.66 2.64 -1 4 C-2.36125 3.2575 -2.36125 3.2575 -3.75 2.5 C-9.63128812 0.00671558 -16.19131555 0.04623929 -22.33984375 1.5859375 C-28.10801882 3.99949252 -31.22273755 8.54157415 -34 14 C-36.47122708 21.44345506 -35.21248461 29.67114472 -33 37 C-36.90271714 33.26696622 -36.90271714 33.26696622 -37.14526367 30.1081543 C-37.16985516 27.63446182 -37.18566073 25.16132435 -37.1875 22.6875 C-37.19974609 21.83220703 -37.21199219 20.97691406 -37.22460938 20.09570312 C-37.24735624 10.30696781 -37.24735624 10.30696781 -33.52734375 6.48828125 C-32.74037109 5.90626953 -32.74037109 5.90626953 -31.9375 5.3125 C-28.98582592 3.32678271 -28.98582592 3.32678271 -28 1 C-19.83004689 -3.93997165 -8.73754731 -3.32858945 0 0 Z " fill="#C79A4E" transform="translate(496,606)"/>
<path d="M0 0 C8.91 0 17.82 0 27 0 C23.31422423 1.84288788 22.27877347 2.24701045 18.453125 2.1953125 C17.18662109 2.18564453 17.18662109 2.18564453 15.89453125 2.17578125 C15.02183594 2.15902344 14.14914063 2.14226563 13.25 2.125 C12.36183594 2.11597656 11.47367188 2.10695313 10.55859375 2.09765625 C8.37227989 2.0741475 6.18610516 2.03827811 4 2 C3.67 7.28 3.34 12.56 3 18 C9.27 18.33 15.54 18.66 22 19 C22 19.33 22 19.66 22 20 C14.74 20 7.48 20 0 20 C0 13.4 0 6.8 0 0 Z " fill="#1E0C06" transform="translate(180,606)"/>
<path d="M0 0 C6.93 0 13.86 0 21 0 C21 0.33 21 0.66 21 1 C12.09 1.99 12.09 1.99 3 3 C3.01160156 4.46953125 3.02320313 5.9390625 3.03515625 7.453125 C3.0445363 9.3854154 3.05363627 11.31770717 3.0625 13.25 C3.07087891 14.21808594 3.07925781 15.18617188 3.08789062 16.18359375 C3.09111328 17.11816406 3.09433594 18.05273438 3.09765625 19.015625 C3.10289307 19.87446289 3.10812988 20.73330078 3.11352539 21.61816406 C3 24 3 24 2 28 C-1.3 28 -4.6 28 -8 28 C-8 27.67 -8 27.34 -8 27 C-5.36 27 -2.72 27 0 27 C0 18.09 0 9.18 0 0 Z " fill="#28150B" transform="translate(180,633)"/>
<path d="M0 0 C1.67542976 0.28604898 3.34385343 0.61781233 5 1 C5 2.32 5 3.64 5 5 C4.34 5.66 3.68 6.32 3 7 C2.01 7 1.02 7 0 7 C-0.33 8.32 -0.66 9.64 -1 11 C-2.65 11 -4.3 11 -6 11 C-6 11.66 -6 12.32 -6 13 C-8.32595946 14.16297973 -9.78723231 14.16600691 -12.375 14.1875 C-13.53128906 14.20876953 -13.53128906 14.20876953 -14.7109375 14.23046875 C-17.21834888 13.97801607 -18.83261902 13.25193467 -21 12 C-20.43152344 11.98582031 -19.86304688 11.97164062 -19.27734375 11.95703125 C-12.95190075 11.56631106 -9.95672891 9.86624855 -5 6 C-4.01 6 -3.02 6 -2 6 C-1.855625 5.195625 -1.71125 4.39125 -1.5625 3.5625 C-1 1 -1 1 0 0 Z " fill="#E2A12B" transform="translate(501,644)"/>
<path d="M0 0 C1 3 1 3 0.375 5.5 C-1.30556483 8.55557241 -3.02934773 9.2610816 -6 11 C-7.01187895 12.65948148 -8.0126546 14.32580562 -9 16 C-12.70756921 18.69557762 -16.87123164 18.22557242 -21.25 18.125 C-21.99507813 18.11597656 -22.74015625 18.10695313 -23.5078125 18.09765625 C-25.33868059 18.07418358 -27.16938238 18.03831525 -29 18 C-28.67 17.34 -28.34 16.68 -28 16 C-25.82821028 15.49020404 -23.63572345 15.06746863 -21.4375 14.6875 C-12.14008771 12.79778206 -6.58961725 9.62220534 -1 2 C-0.67 1.34 -0.34 0.68 0 0 Z " fill="#0C0302" transform="translate(509,645)"/>
<path d="M0 0 C0.66 0 1.32 0 2 0 C3.00399524 2.62353518 4.00334445 5.24867795 5 7.875 C5.28617187 8.62136719 5.57234375 9.36773438 5.8671875 10.13671875 C8 15.7734375 8 15.7734375 8 18 C6.02 18 4.04 18 2 18 C-1 11.5 -1 11.5 -1 7 C0.5 5.25 0.5 5.25 2 4 C1.34 4 0.68 4 0 4 C0 2.68 0 1.36 0 0 Z " fill="#E4E4E4" transform="translate(297,643)"/>
<path d="M0 0 C0.70125 0.7425 1.4025 1.485 2.125 2.25 C6.29763348 6.24121464 10.12556576 9.453541 16 10 C17.00546875 10.11214844 17.00546875 10.11214844 18.03125 10.2265625 C23.65187494 10.5922881 26.83234597 9.39465748 31.37109375 6.09375 C33 5 33 5 35 5 C35.33 4.01 35.66 3.02 36 2 C36.495 2.99 36.495 2.99 37 4 C35.61104364 8.16686908 32.69535969 9.11024049 29 11 C28.40703125 11.37511719 27.8140625 11.75023437 27.203125 12.13671875 C24.04151995 13.37557463 21.42830112 13.02299988 18.0625 12.75 C16.85722656 12.66234375 15.65195312 12.5746875 14.41015625 12.484375 C11.27608202 12.0392144 8.85737551 11.32295944 6 10 C6 9.34 6 8.68 6 8 C4.35 7.67 2.7 7.34 1 7 C0.67 4.69 0.34 2.38 0 0 Z " fill="#CB9A48" transform="translate(463,643)"/>
<path d="M0 0 C6.35764584 0.97379435 11.64211092 4.06489096 15.69140625 9.10546875 C19 14.28044872 19 14.28044872 19 17 C15.92553889 17.35474551 13.05872891 17.53698855 10 17 C7.4375 14 7.4375 14 6 11 C6.99 11 7.98 11 9 11 C9.33 11.99 9.66 12.98 10 14 C11.98 14 13.96 14 16 14 C15.67 12.68 15.34 11.36 15 10 C13.68 10.33 12.36 10.66 11 11 C10.67 10.2575 10.34 9.515 10 8.75 C7.30745156 5.04774589 4.13732658 3.75910085 0 2 C0 1.34 0 0.68 0 0 Z " fill="#C89A45" transform="translate(491,600)"/>
<path d="M0 0 C1.32 0 2.64 0 4 0 C4 0.66 4 1.32 4 2 C4.66 2 5.32 2 6 2 C6 2.66 6 3.32 6 4 C9.3 4.99 12.6 5.98 16 7 C16 7.66 16 8.32 16 9 C16.90363281 8.62746094 17.80726563 8.25492188 18.73828125 7.87109375 C20.50751953 7.16146484 20.50751953 7.16146484 22.3125 6.4375 C23.48425781 5.96183594 24.65601563 5.48617187 25.86328125 4.99609375 C29 4 29 4 32 5 C26.32098044 9.33276697 22.12769559 10.92969942 15 10 C8.47118513 8.96913449 4.483599 5.64663896 0 1 C0 0.67 0 0.34 0 0 Z " fill="#200C00" transform="translate(464,644)"/>
<path d="M0 0 C4.95 0 9.9 0 15 0 C15 1.65 15 3.3 15 5 C10.05 5 5.1 5 0 5 C0 3.35 0 1.7 0 0 Z " fill="#EFEFEF" transform="translate(404,637)"/>
<path d="M0 0 C4.79008486 3.83206789 4.79008486 3.83206789 5.3671875 7.04296875 C5.37774025 9.93969939 5.30956811 12.38086379 4 15 C3.4225 14.62875 2.845 14.2575 2.25 13.875 C0 12.70833333 0 12.70833333 -2.25 13.875 C-3.11625 14.431875 -3.11625 14.431875 -4 15 C-3.34 14.01 -2.68 13.02 -2 12 C-1.83326446 10.00796011 -1.83326446 10.00796011 -2 7.9375 C-2 4 -2 4 0 2 C0 1.34 0 0.68 0 0 Z " fill="#EEEEEE" transform="translate(610,640)"/>
<path d="M0 0 C0.74507813 0.00451172 1.49015625 0.00902344 2.2578125 0.01367188 C4.0885764 0.02540754 5.91929873 0.0433415 7.75 0.0625 C7.75 0.3925 7.75 0.7225 7.75 1.0625 C6.86699219 1.07667969 5.98398437 1.09085938 5.07421875 1.10546875 C-3.20329452 1.43443544 -10.17414229 2.52870969 -17.25 7.0625 C-18.24 8.5475 -18.24 8.5475 -19.25 10.0625 C-19.91 10.0625 -20.57 10.0625 -21.25 10.0625 C-21.25 11.3825 -21.25 12.7025 -21.25 14.0625 C-22.57 14.0625 -23.89 14.0625 -25.25 14.0625 C-25.25 14.7225 -25.25 15.3825 -25.25 16.0625 C-25.91 15.7325 -26.57 15.4025 -27.25 15.0625 C-23.10511316 8.65824347 -17.93013568 2.75788777 -10.35888672 0.49804688 C-6.9350967 -0.20906604 -3.47982134 -0.03996261 0 0 Z " fill="#CB9B4E" transform="translate(482.25,598.9375)"/>
<path d="M0 0 C1.39456452 0.00667256 2.78911118 0.01863093 4.18359375 0.03515625 C4.89451172 0.03966797 5.60542969 0.04417969 6.33789062 0.04882812 C8.09899388 0.06064761 9.86005411 0.07858362 11.62109375 0.09765625 C11.62109375 1.41765625 11.62109375 2.73765625 11.62109375 4.09765625 C5.02109375 4.42765625 -1.57890625 4.75765625 -8.37890625 5.09765625 C-7.37890625 3.09765625 -7.37890625 3.09765625 -4.37890625 1.09765625 C-3.37890625 0.09765625 -3.37890625 0.09765625 0 0 Z " fill="#E0A233" transform="translate(187.37890625,627.90234375)"/>
<path d="M0 0 C2.75 -0.3125 2.75 -0.3125 6 0 C8.375 2.3125 8.375 2.3125 10 5 C10 5.99 10 6.98 10 8 C7.25 8.3125 7.25 8.3125 4 8 C1.625 5.6875 1.625 5.6875 0 3 C0 2.01 0 1.02 0 0 Z " fill="#F3F3F3" transform="translate(380,623)"/>
<path d="M0 0 C1.051875 -0.01417969 2.10375 -0.02835938 3.1875 -0.04296875 C6 0.1875 6 0.1875 9 2.1875 C8.11957031 2.16429687 7.23914063 2.14109375 6.33203125 2.1171875 C5.17058594 2.09914063 4.00914062 2.08109375 2.8125 2.0625 C1.66394531 2.03929687 0.51539063 2.01609375 -0.66796875 1.9921875 C-4.72135696 2.22978353 -7.60057422 2.85372629 -10.58203125 5.6953125 C-10.98808594 6.22898437 -11.39414062 6.76265625 -11.8125 7.3125 C-12.534375 8.26125 -13.25625 9.21 -14 10.1875 C-14.99 9.8575 -15.98 9.5275 -17 9.1875 C-15.49364535 4.96970697 -12.75987578 3.4127326 -9 1.1875 C-5.79226388 0.11825463 -3.37015182 0.02065044 0 0 Z " fill="#210E05" transform="translate(482,605.8125)"/>
<path d="M0 0 C1.08667969 0.02707031 2.17335938 0.05414062 3.29296875 0.08203125 C4.54013672 0.13423828 4.54013672 0.13423828 5.8125 0.1875 C5.4825 1.5075 5.1525 2.8275 4.8125 4.1875 C1.1825 3.8575 -2.4475 3.5275 -6.1875 3.1875 C-6.8475 4.8375 -7.5075 6.4875 -8.1875 8.1875 C-8.5175 8.1875 -8.8475 8.1875 -9.1875 8.1875 C-9.54967304 3.7206992 -9.54967304 3.7206992 -8.0625 1.53125 C-5.35752455 -0.40731574 -3.28382677 -0.1059299 0 0 Z " fill="#120504" transform="translate(506.1875,639.8125)"/>
<path d="M0 0 C3.74011156 1.0686033 4.90006378 1.85723397 7.1875 5.125 C8.92732445 7.43728282 9.62268267 7.94195118 12.5390625 8.390625 C15.05120806 8.37647207 17.50221611 8.26190355 20 8 C20 8.66 20 9.32 20 10 C15.38 10.33 10.76 10.66 6 11 C6 9.02 6 7.04 6 5 C4.02 4.34 2.04 3.68 0 3 C0 2.01 0 1.02 0 0 Z " fill="#271406" transform="translate(491,608)"/>
<path d="M0 0 C2.475 0.495 2.475 0.495 5 1 C4.67257812 1.92941406 4.34515625 2.85882812 4.0078125 3.81640625 C2.57840943 8.819317 2.78325644 13.7751602 2.875 18.9375 C2.88853516 20.3925293 2.88853516 20.3925293 2.90234375 21.87695312 C2.92573893 24.25156407 2.95851824 26.62564776 3 29 C0.28336207 26.28336207 0.69246879 24.69805347 0.5859375 20.8984375 C0.54726563 19.68671875 0.50859375 18.475 0.46875 17.2265625 C0.4378125 15.95554687 0.406875 14.68453125 0.375 13.375 C0.33632813 12.09625 0.29765625 10.8175 0.2578125 9.5 C0.16328951 6.33347983 0.07773643 3.1669696 0 0 Z " fill="#271103" transform="translate(450,613)"/>
<path d="M0 0 C0.66 0 1.32 0 2 0 C2 8.58 2 17.16 2 26 C-0.31 25.67 -2.62 25.34 -5 25 C-5 24.67 -5 24.34 -5 24 C-3.35 23.67 -1.7 23.34 0 23 C0 15.41 0 7.82 0 0 Z " fill="#CEA551" transform="translate(178,634)"/>
<path d="M0 0 C3.3 0 6.6 0 10 0 C10 1.98 10 3.96 10 6 C3.07 6 -3.86 6 -11 6 C-11 5.67 -11 5.34 -11 5 C-5.06 5 0.88 5 7 5 C7 3.68 7 2.36 7 1 C4.69 1 2.38 1 0 1 C0 0.67 0 0.34 0 0 Z " fill="#C9A15B" transform="translate(192,627)"/>
<path d="M0 0 C-1.01320313 0.65355469 -1.01320313 0.65355469 -2.046875 1.3203125 C-7.18611754 4.75142529 -11.05920515 7.51942778 -14 13 C-14.33 11.68 -14.66 10.36 -15 9 C-14.34 9 -13.68 9 -13 9 C-12.67 7.68 -12.34 6.36 -12 5 C-11.34 5 -10.68 5 -10 5 C-9.938125 4.38125 -9.87625 3.7625 -9.8125 3.125 C-9 1 -9 1 -6.6875 -0.3125 C-3.8602974 -1.03573787 -2.7176519 -0.80544481 0 0 Z " fill="#260F04" transform="translate(470,601)"/>
<path d="M0 0 C0.66 0 1.32 0 2 0 C2 1.98 2 3.96 2 6 C0.35 6 -1.3 6 -3 6 C-3 5.34 -3 4.68 -3 4 C-3.66 4.66 -4.32 5.32 -5 6 C-6 7 -7 8 -8 9 C-8.66 8.34 -9.32 7.68 -10 7 C-9.67 5.68 -9.34 4.36 -9 3 C-5.7 3 -2.4 3 1 3 C0.67 2.01 0.34 1.02 0 0 Z " fill="#0C0406" transform="translate(510,615)"/>
<path d="M0 0 C0.70125 0.7425 1.4025 1.485 2.125 2.25 C6.33887792 6.28066583 10.09333403 9.30509812 16 10 C16 10.33 16 10.66 16 11 C13.03 11 10.06 11 7 11 C6.67 10.01 6.34 9.02 6 8 C4.35 7.67 2.7 7.34 1 7 C0.67 4.69 0.34 2.38 0 0 Z " fill="#C39247" transform="translate(463,643)"/>
<path d="M0 0 C0.66 0.99 1.32 1.98 2 3 C0.68 3.99 -0.64 4.98 -2 6 C-1.67 7.32 -1.34 8.64 -1 10 C-3.3125 11.5625 -3.3125 11.5625 -6 13 C-6.99 12.67 -7.98 12.34 -9 12 C-6.03 8.04 -3.06 4.08 0 0 Z " fill="#171717" transform="translate(545,557)"/>
<path d="M0 0 C0.33 0 0.66 0 1 0 C1.29883729 7.47093223 0.15925507 14.63044989 -1 22 C-1.33 22 -1.66 22 -2 22 C-2.05416741 19.27056463 -2.09375225 16.54221436 -2.125 13.8125 C-2.14175781 13.04357422 -2.15851563 12.27464844 -2.17578125 11.48242188 C-2.21266851 7.1850566 -1.9958504 3.92098169 0 0 Z " fill="#C69342" transform="translate(454,616)"/>
<path d="M0 0 C0 3 0 3 -2 6 C-2.66 6 -3.32 6 -4 6 C-4 7.32 -4 8.64 -4 10 C-5.32 10 -6.64 10 -8 10 C-8 10.66 -8 11.32 -8 12 C-8.66 11.67 -9.32 11.34 -10 11 C-9.09066991 9.72390677 -8.17217147 8.45434447 -7.25 7.1875 C-6.73953125 6.47980469 -6.2290625 5.77210938 -5.703125 5.04296875 C-3.97517642 2.97022309 -2.21473524 1.52624146 0 0 Z " fill="#C59741" transform="translate(465,603)"/>
<path d="M0 0 C1.65 0.33 3.3 0.66 5 1 C4 4 4 4 2 5 C-0.3329866 5.04022391 -2.66706666 5.04320247 -5 5 C-5 4.01 -5 3.02 -5 2 C-3.35 2 -1.7 2 0 2 C0 1.34 0 0.68 0 0 Z " fill="#050510" transform="translate(201,633)"/>
<path d="M0 0 C3.465 1.98 3.465 1.98 7 4 C7 5.32 7 6.64 7 8 C7.99 8.33 8.98 8.66 10 9 C9.34 10.32 8.68 11.64 8 13 C7.68546875 12.46890625 7.3709375 11.9378125 7.046875 11.390625 C4.68044412 7.48458848 2.44694458 4.06395074 -1 1 C-0.67 0.67 -0.34 0.34 0 0 Z " fill="#221005" transform="translate(501,602)"/>
<path d="M0 0 C3.2441189 1.04275251 4.60194664 2.61240491 6.3125 5.4375 C8 9 8 9 7 12 C5.82455195 10.56967163 4.65989738 9.13046758 3.5 7.6875 C2.8503125 6.88699219 2.200625 6.08648437 1.53125 5.26171875 C0 3 0 3 0 0 Z " fill="#EAEAEA" transform="translate(119,394)"/>
<path d="M0 0 C0.33 0.99 0.66 1.98 1 3 C0.175 3.78375 -0.65 4.5675 -1.5 5.375 C-4.22988506 7.63721264 -4.22988506 7.63721264 -4 10 C-4.99 10.33 -5.98 10.66 -7 11 C-7.99 10.01 -8.98 9.02 -10 8 C-6.7 5.36 -3.4 2.72 0 0 Z " fill="#151515" transform="translate(263,348)"/>
<path d="M0 0 C3.17949068 0.35327674 4.62099742 0.58179026 6.8125 3 C10.02583924 5.93791016 12.7123327 5.71415551 17 6 C17 6.33 17 6.66 17 7 C12.19563218 7.38434943 8.90975143 7.47968712 4.5625 5.1875 C2 3 2 3 0 0 Z " fill="#282828" transform="translate(359,649)"/>
<path d="M0 0 C0.99 0 1.98 0 3 0 C3.33 0.99 3.66 1.98 4 3 C5.98 3 7.96 3 10 3 C10.33 2.34 10.66 1.68 11 1 C11.66 2.65 12.32 4.3 13 6 C9.92553889 6.35474551 7.05872891 6.53698855 4 6 C1.4375 3 1.4375 3 0 0 Z " fill="#CBA158" transform="translate(497,611)"/>
<path d="M0 0 C3.46518731 1.54008325 6.27562776 3.34925944 9 6 C9.8125 9.25 9.8125 9.25 10 12 C6.0747975 8.29909479 3.05419844 4.45040344 0 0 Z " fill="#E7E7E7" transform="translate(235,544)"/>
<path d="M0 0 C0.33 0.66 0.66 1.32 1 2 C1.66 2 2.32 2 3 2 C4.6875 4.375 4.6875 4.375 6 7 C5.67 7.66 5.34 8.32 5 9 C4.01 8.67 3.02 8.34 2 8 C1.67 8.99 1.34 9.98 1 11 C0.34 10.34 -0.32 9.68 -1 9 C-0.625 6.625 -0.625 6.625 0 4 C0 2.68 0 1.36 0 0 Z " fill="#110705" transform="translate(451,640)"/>
<path d="M0 0 C0.66 0.99 1.32 1.98 2 3 C-0.31 5.64 -2.62 8.28 -5 11 C-5.66 10.67 -6.32 10.34 -7 10 C-3.375 3.125 -3.375 3.125 0 2 C0 1.34 0 0.68 0 0 Z " fill="#EDEDED" transform="translate(576,514)"/>
<path d="M0 0 C1 3 1 3 0.4375 5.4375 C-1.46551623 8.82983328 -3.59370567 10.19257852 -7 12 C-7.99 11.67 -8.98 11.34 -10 11 C-9.44570313 10.54109375 -8.89140625 10.0821875 -8.3203125 9.609375 C-7.59585937 8.99578125 -6.87140625 8.3821875 -6.125 7.75 C-5.04605469 6.84507812 -5.04605469 6.84507812 -3.9453125 5.921875 C-2.02947882 4.02912366 -1.03550955 2.46342273 0 0 Z " fill="#221106" transform="translate(509,645)"/>
<path d="M0 0 C0.99 0.33 1.98 0.66 3 1 C-3 5 -3 5 -8 5 C-8 4.34 -8 3.68 -8 3 C-9.32 2.67 -10.64 2.34 -12 2 C-10.95199219 1.90912109 -10.95199219 1.90912109 -9.8828125 1.81640625 C-8.97273438 1.73261719 -8.06265625 1.64882813 -7.125 1.5625 C-6.22007812 1.48128906 -5.31515625 1.40007813 -4.3828125 1.31640625 C-1.98889139 1.13010715 -1.98889139 1.13010715 0 0 Z " fill="#09010A" transform="translate(488,648)"/>
<path d="M0 0 C0.66 0.33 1.32 0.66 2 1 C2 4.3 2 7.6 2 11 C-0.0625 9.25 -0.0625 9.25 -2 7 C-1.8125 4.9375 -1.8125 4.9375 -1 3 C-0.67 2.01 -0.34 1.02 0 0 Z " fill="#0C0C0C" transform="translate(254,639)"/>
<path d="M0 0 C2.31 1.98 4.62 3.96 7 6 C3.29847322 6.92538169 2.36541838 7.08174162 -1 6 C-0.67 4.02 -0.34 2.04 0 0 Z " fill="#1E0E03" transform="translate(457,649)"/>
<path d="M0 0 C-4.18586481 3.18923033 -6.70558305 4.50423019 -12 4 C-10.720327 1.44065399 -9.75798964 1.3010767 -7.125 0.3125 C-6.07699219 -0.09548828 -6.07699219 -0.09548828 -5.0078125 -0.51171875 C-3 -1 -3 -1 0 0 Z " fill="#210803" transform="translate(496,649)"/>
<path d="M0 0 C1.88101041 1.58818821 2.90165342 2.47548493 3.36328125 4.9375 C3.34652344 5.618125 3.32976562 6.29875 3.3125 7 C3.30863281 7.680625 3.30476563 8.36125 3.30078125 9.0625 C3 11 3 11 1 14 C-0.04976964 10.85069107 -0.10131595 8.61185544 -0.0625 5.3125 C-0.05347656 4.31863281 -0.04445313 3.32476563 -0.03515625 2.30078125 C-0.02355469 1.54152344 -0.01195312 0.78226563 0 0 Z " fill="#211505" transform="translate(460,624)"/>
<path d="M0 0 C1.32 0 2.64 0 4 0 C3.67 1.98 3.34 3.96 3 6 C1.68 6.33 0.36 6.66 -1 7 C-0.67 4.69 -0.34 2.38 0 0 Z " fill="#05020D" transform="translate(457,600)"/>
<path d="M0 0 C2.31 0.66 4.62 1.32 7 2 C7 2.66 7 3.32 7 4 C9.64 4 12.28 4 15 4 C15 4.33 15 4.66 15 5 C5.58997722 5.18451025 5.58997722 5.18451025 1 4 C0.67 2.68 0.34 1.36 0 0 Z " fill="#391D0D" transform="translate(473,649)"/>
<path d="M0 0 C1.9375 0.8125 1.9375 0.8125 4 2 C4.33 2.99 4.66 3.98 5 5 C2.69 5 0.38 5 -2 5 C-1.34 3.35 -0.68 1.7 0 0 Z " fill="#F0F0F0" transform="translate(322,568)"/>
<path d="M0 0 C0.66 0.33 1.32 0.66 2 1 C1.375 3.375 1.375 3.375 0 6 C-3.125 7.3125 -3.125 7.3125 -6 8 C-4.02 5.36 -2.04 2.72 0 0 Z " fill="#151515" transform="translate(668,401)"/>
<path d="M0 0 C0.66 0 1.32 0 2 0 C2.93065133 2.60582371 3.14917407 3.64198224 2.0625 6.25 C1.5365625 7.11625 1.5365625 7.11625 1 8 C-0.32 8 -1.64 8 -3 8 C-2.5359375 7.13375 -2.5359375 7.13375 -2.0625 6.25 C-1.07416636 4.15705816 -0.4831387 2.25464725 0 0 Z " fill="#05080A" transform="translate(509,648)"/>
<path d="M0 0 C0.99 1.32 1.98 2.64 3 4 C1.66666667 5.33333333 0.33333333 6.66666667 -1 8 C-1.66 6.35 -2.32 4.7 -3 3 C-2.01 2.01 -1.02 1.02 0 0 Z " fill="#E8E8E8" transform="translate(333,644)"/>
<path d="M0 0 C1.09570312 0.00902344 2.19140625 0.01804687 3.3203125 0.02734375 C4.16335938 0.03894531 5.00640625 0.05054688 5.875 0.0625 C5.545 0.7225 5.215 1.3825 4.875 2.0625 C1.575 1.7325 -1.725 1.4025 -5.125 1.0625 C-5.785 2.7125 -6.445 4.3625 -7.125 6.0625 C-7.455 6.0625 -7.785 6.0625 -8.125 6.0625 C-8.125 4.4125 -8.125 2.7625 -8.125 1.0625 C-5.36047967 -0.31976016 -3.0788637 -0.03275387 0 0 Z " fill="#4B3418" transform="translate(505.125,641.9375)"/>
<path d="M0 0 C1.32 0 2.64 0 4 0 C4 0.66 4 1.32 4 2 C5.65 2 7.3 2 9 2 C4.8204355 4.78637633 2.85331323 3.79562512 -2 3 C-1.34 2.67 -0.68 2.34 0 2 C0 1.34 0 0.68 0 0 Z " fill="#03010D" transform="translate(188,594)"/>
<path d="M0 0 C0.66 0.66 1.32 1.32 2 2 C1.34 2 0.68 2 0 2 C-0.33 3.32 -0.66 4.64 -1 6 C-3.31 6.33 -5.62 6.66 -8 7 C-5.4837822 4.39391727 -2.94865641 2.10618315 0 0 Z " fill="#EAEAEA" transform="translate(228,325)"/>
<path d="M0 0 C4.95 0.99 4.95 0.99 10 2 C6.23312136 3.88343932 4.97041037 4.22057835 1 4 C0.67 2.68 0.34 1.36 0 0 Z " fill="#200C04" transform="translate(470,659)"/>
<path d="M0 0 C2.375 -0.1875 2.375 -0.1875 5 0 C5.66 0.99 6.32 1.98 7 3 C6.34 3.66 5.68 4.32 5 5 C2.5 3.625 2.5 3.625 0 2 C0 1.34 0 0.68 0 0 Z " fill="#070210" transform="translate(502,601)"/>
<path d="M0 0 C2.92824652 0.97608217 4.61426621 2.10786631 7 4 C3.94736336 4.98120464 2.05263664 4.98120464 -1 4 C-0.67 2.68 -0.34 1.36 0 0 Z " fill="#0C0505" transform="translate(201,594)"/>
<path d="M0 0 C0.66 0 1.32 0 2 0 C5.22265625 5.17578125 5.22265625 5.17578125 6 7 C5.67 7.99 5.34 8.98 5 10 C4.16121545 8.71186658 3.32913217 7.41936744 2.5 6.125 C2.0359375 5.40570312 1.571875 4.68640625 1.09375 3.9453125 C0 2 0 2 0 0 Z " fill="#BB904A" transform="translate(453,640)"/>
<path d="M0 0 C2.31 0.33 4.62 0.66 7 1 C6.67 2.32 6.34 3.64 6 5 C5.01 5 4.02 5 3 5 C1.3125 2.5 1.3125 2.5 0 0 Z " fill="#F0F0F0" transform="translate(318,630)"/>
<path d="M0 0 C1.32 1.32 2.64 2.64 4 4 C3.01 4.66 2.02 5.32 1 6 C0.27034634 8.56282742 0.27034634 8.56282742 0 11 C-0.33 11 -0.66 11 -1 11 C-1.625 7.625 -1.625 7.625 -2 4 C-1.34 3.34 -0.68 2.68 0 2 C0 1.34 0 0.68 0 0 Z " fill="#D4D4D4" transform="translate(610,640)"/>
<path d="M0 0 C0.66 0.33 1.32 0.66 2 1 C1.6875 2.9375 1.6875 2.9375 1 5 C0.01 5.33 -0.98 5.66 -2 6 C-2.66 6.66 -3.32 7.32 -4 8 C-4 4.09161134 -2.49432124 2.88405893 0 0 Z " fill="#E5E5E5" transform="translate(530,490)"/>
<path d="M0 0 C0.66 0.99 1.32 1.98 2 3 C1.34 3 0.68 3 0 3 C0 3.66 0 4.32 0 5 C-0.66 5 -1.32 5 -2 5 C-2.33 5.99 -2.66 6.98 -3 8 C-3.99 7.67 -4.98 7.34 -6 7 C-4.02 4.69 -2.04 2.38 0 0 Z " fill="#191919" transform="translate(613,471)"/>
<path d="M0 0 C0.66 0.33 1.32 0.66 2 1 C1.67 1.99 1.34 2.98 1 4 C-2.3 4 -5.6 4 -9 4 C-6.00084818 2.50042409 -3.16379181 1.08234983 0 0 Z " fill="#2E180A" transform="translate(497,657)"/>
<path d="M0 0 C0.66 0.33 1.32 0.66 2 1 C2 1.99 2 2.98 2 4 C2.33 4.66 2.66 5.32 3 6 C1.68 6.33 0.36 6.66 -1 7 C-1.33 5.02 -1.66 3.04 -2 1 C-1.34 0.67 -0.68 0.34 0 0 Z " fill="#E1E1E1" transform="translate(379,653)"/>
<path d="M0 0 C6.625 -0.125 6.625 -0.125 10 1 C10 1.66 10 2.32 10 3 C10.66 3.33 11.32 3.66 12 4 C9.03 3.505 9.03 3.505 6 3 C6 2.34 6 1.68 6 1 C4.02 1 2.04 1 0 1 C0 0.67 0 0.34 0 0 Z " fill="#200C04" transform="translate(482,596)"/>
<path d="M0 0 C0.99 0.33 1.98 0.66 3 1 C3 1.99 3 2.98 3 4 C0.69 4.33 -1.62 4.66 -4 5 C-2.68 3.35 -1.36 1.7 0 0 Z " fill="#111111" transform="translate(281,331)"/>
<path d="M0 0 C0.66 0.33 1.32 0.66 2 1 C2 4.90838866 0.49432124 6.11594107 -2 9 C-2 5.20442119 -1.49821059 3.37097383 0 0 Z " fill="#151515" transform="translate(120,157)"/>
<path d="M0 0 C2.02054804 1.64169528 4.02043058 3.30911778 6 5 C6 5.33 6 5.66 6 6 C4.02 6 2.04 6 0 6 C0 4.02 0 2.04 0 0 Z " fill="#06010E" transform="translate(168,658)"/>
<path d="M0 0 C0.66 0.66 1.32 1.32 2 2 C1.33333333 4 0.66666667 6 0 8 C-0.99 6.68 -1.98 5.36 -3 4 C-2.01 2.68 -1.02 1.36 0 0 Z " fill="#EBEBEB" transform="translate(253,647)"/>
<path d="M0 0 C0.66 0.33 1.32 0.66 2 1 C0.75 3.9375 0.75 3.9375 -1 7 C-3.1875 7.875 -3.1875 7.875 -5 8 C-3.62845496 5.04590299 -2.01136276 2.55991624 0 0 Z " fill="#E5E5E5" transform="translate(500,527)"/>
<path d="M0 0 C1.32 0.33 2.64 0.66 4 1 C2.71937515 2.7074998 1.38232443 4.37373596 0 6 C-0.66 6 -1.32 6 -2 6 C-1.34 4.02 -0.68 2.04 0 0 Z " fill="#ECECEC" transform="translate(586,500)"/>
<path d="M0 0 C0.66 0.33 1.32 0.66 2 1 C1.67 1.99 1.34 2.98 1 4 C0.34 4 -0.32 4 -1 4 C-1.33 4.66 -1.66 5.32 -2 6 C-2.66 4.68 -3.32 3.36 -4 2 C-2.125 0.9375 -2.125 0.9375 0 0 Z " fill="#161616" transform="translate(246,360)"/>
<path d="M0 0 C0.66 0.99 1.32 1.98 2 3 C0.35 4.98 -1.3 6.96 -3 9 C-3.66 8.67 -4.32 8.34 -5 8 C-3.35 5.36 -1.7 2.72 0 0 Z " fill="#272727" transform="translate(359,267)"/>
</svg>
