<?xml version="1.0" encoding="UTF-8"?>
<svg version="1.1" xmlns="http://www.w3.org/2000/svg" width="500" height="500">
<path d="M0 0 C0.680625 0.2475 1.36125 0.495 2.0625 0.75 C2.46339844 1.9875 2.86429688 3.225 3.27734375 4.5 C7.40006573 17.11162405 11.9084025 29.53801331 16.62109375 41.93945312 C18.31459026 46.40710936 19.98496923 50.88337135 21.65625 55.359375 C27.38064065 70.6830151 33.10763111 85.99834583 39.13500977 101.20605469 C41.71236447 107.74918426 44.05495534 114.35479574 46.33886719 121.00512695 C49.4737836 130.06738391 52.95995233 138.99000861 56.42578125 147.9296875 C58.55153225 153.41373503 60.64215041 158.91014407 62.71777344 164.41333008 C70.10669793 184.00129576 77.70393786 203.50844321 85.28575134 223.02235413 C88.16806187 230.44219614 91.04304999 237.86484232 93.9140625 245.2890625 C101.8235474 265.73599525 109.78217741 286.16107145 117.86953735 306.5383606 C123.2735791 320.15836836 128.57017513 333.81650217 133.80844116 347.5010376 C138.88097879 360.74697556 144.07916458 373.93712928 149.37890625 387.09375 C149.8083252 388.17011719 150.23774414 389.24648438 150.68017578 390.35546875 C151.68080446 392.81268196 152.70797179 395.24513362 153.76904297 397.67578125 C154.05158432 398.33920532 154.33412567 399.00262939 154.62522888 399.68615723 C155.41898832 401.54865371 156.22843423 403.40444227 157.03881836 405.25976562 C158.52234605 410.31784144 157.86686762 414.75651169 155.5390625 419.4609375 C155.24 420.06550781 154.9409375 420.67007812 154.6328125 421.29296875 C154.32085937 421.89753906 154.00890625 422.50210937 153.6875 423.125 C153.38328125 423.75277344 153.0790625 424.38054687 152.765625 425.02734375 C150.44287744 429.62320752 150.44287744 429.62320752 147.0625 430.75 C145.24184191 430.84340001 143.41790803 430.87733804 141.59485626 430.87863445 C140.45166286 430.8818589 139.30846946 430.88508335 138.13063383 430.8884055 C136.86907862 430.8868569 135.60752341 430.8853083 134.30773926 430.88371277 C132.9584778 430.88558012 131.60921689 430.88788052 130.25995684 430.89057809 C126.54420593 430.89671176 122.82847746 430.89656066 119.11272264 430.89538372 C115.10858705 430.89518011 111.10445875 430.90069459 107.10032654 430.90544128 C99.25303403 430.91375661 91.40574903 430.91649651 83.55845249 430.91705366 C77.18268977 430.91752834 70.80692954 430.91958064 64.4311676 430.92275429 C46.36871599 430.9315627 28.30627033 430.93617329 10.24381655 430.93542381 C9.26955338 430.93538386 8.29529021 430.9353439 7.29150391 430.93530273 C6.31605631 430.93526185 5.34060872 430.93522097 4.3356021 430.93517885 C-11.48254767 430.93477217 -27.30067366 430.9443469 -43.11881655 430.9584411 C-59.3470358 430.97278703 -75.57524343 430.97971229 -91.80346918 430.97884732 C-100.91996928 430.97851477 -110.03644444 430.98128737 -119.15293884 430.99202538 C-126.91298937 431.00110689 -134.67300366 431.003325 -142.43305719 430.99651595 C-146.39489638 430.99323901 -150.35666594 430.99323611 -154.31849861 431.0018692 C-157.94170682 431.00968349 -161.56478958 431.00835525 -165.18799454 430.99958507 C-167.12721132 430.99730349 -169.06643183 431.00491828 -171.00563383 431.01282471 C-172.14882723 431.00822592 -173.29202064 431.00362712 -174.46985626 430.99888897 C-175.46043927 430.99910634 -176.45102227 430.99932371 -177.47162294 430.99954766 C-179.9375 430.75 -179.9375 430.75 -182.9375 428.75 C-183.99756894 426.34154666 -184.87474477 424.05126232 -185.6875 421.5625 C-185.92082031 420.91474609 -186.15414062 420.26699219 -186.39453125 419.59960938 C-188.93892912 411.97403371 -186.85231755 405.86844568 -183.98828125 398.75390625 C-183.54563179 397.62709694 -183.54563179 397.62709694 -183.09403992 396.4775238 C-182.15309991 394.08631799 -181.2019734 391.69933187 -180.25 389.3125 C-179.01453556 386.18974487 -177.78289902 383.06548305 -176.55078125 379.94140625 C-176.2445282 379.1670372 -175.93827515 378.39266815 -175.6227417 377.59483337 C-173.14732524 371.32303002 -170.7675809 365.01868935 -168.41381836 358.70043945 C-166.11147717 352.52399504 -163.74599207 346.37154869 -161.38769531 340.21630859 C-159.95790212 336.48446376 -158.52988518 332.75193909 -157.1015625 329.01953125 C-156.82250061 328.29045563 -156.54343872 327.56138 -156.25592041 326.81021118 C-154.14411731 321.29229185 -152.03861444 315.77199852 -149.9375 310.25 C-148.60458884 306.74983911 -147.27106578 303.24991152 -145.9375 299.75 C-145.70011108 299.12677856 -145.46272217 298.50355713 -145.21813965 297.8614502 C-143.53817915 293.45125872 -141.85670451 289.04164801 -140.17382812 284.63256836 C-139.61122233 283.15796071 -139.04902962 281.68319538 -138.48730469 280.20825195 C-135.62567209 272.69516879 -132.73237887 265.19890398 -129.7265625 257.7421875 C-127.66558636 252.61575423 -125.71202394 247.48148477 -123.9375 242.25 C-122.06453033 236.83981809 -120.09021119 231.49267028 -117.9375 226.1875 C-113.92141496 216.28321841 -110.21195691 206.27336872 -106.5703125 196.2265625 C-105.6726403 193.75492623 -104.77446247 191.28348434 -103.875 188.8125 C-103.52890182 187.86142868 -103.52890182 187.86142868 -103.17581177 186.8911438 C-99.34997205 176.39969469 -95.31513669 166.00100204 -91.1875 155.625 C-86.75514942 144.47902211 -82.5189065 133.29903337 -78.67724609 121.93359375 C-72.86120218 104.76570704 -72.86120218 104.76570704 -69.5 96.9375 C-66.27031373 89.3640901 -63.68666271 81.56924297 -60.99560547 73.79296875 C-58.95920957 67.93656853 -56.88795483 62.09265073 -54.8125 56.25 C-54.40491455 55.09371094 -53.9973291 53.93742187 -53.57739258 52.74609375 C-47.76467709 36.40435418 -47.76467709 36.40435418 -43.9375 28.75 C-43.2775 28.75 -42.6175 28.75 -41.9375 28.75 C-41.9375 28.09 -41.9375 27.43 -41.9375 26.75 C-41.2775 26.75 -40.6175 26.75 -39.9375 26.75 C-39.9375 26.09 -39.9375 25.43 -39.9375 24.75 C-38.16249435 23.1725602 -36.39267111 21.73819843 -34.5 20.3125 C-33.92813965 19.87728027 -33.3562793 19.44206055 -32.76708984 18.99365234 C-26.04711105 13.96306369 -19.01339938 9.37472544 -11.87988281 4.95410156 C-10.59217873 4.15584156 -9.31512234 3.34012584 -8.04980469 2.50683594 C-5.15063805 0.6789983 -3.47242439 -0.29552548 0 0 Z M-26.9375 102.75 C-27.9632296 105.33147145 -28.98295654 107.91510489 -30 110.5 C-30.27521484 111.1909375 -30.55042969 111.881875 -30.83398438 112.59375 C-33.05958893 118.26781876 -35.08922254 124.00173492 -37.08984375 129.7578125 C-41.01379139 141.04197729 -45.09501492 152.26696254 -49.19873047 163.48681641 C-50.43825501 166.87706504 -51.67431552 170.26856328 -52.91015625 173.66015625 C-56.70512968 184.05617209 -60.54191133 194.42890397 -64.58535767 204.73106384 C-67.0851959 211.10039607 -69.46137953 217.51182895 -71.8125 223.9375 C-74.98387489 232.56220398 -78.24044047 241.14426946 -81.625 249.6875 C-84.71866561 257.5051588 -87.60442483 265.36675934 -90.34008789 273.31616211 C-92.47693284 279.50157061 -94.73382667 285.63428118 -97.0625 291.75 C-97.37517822 292.57387207 -97.68785645 293.39774414 -98.01000977 294.24658203 C-99.72390207 298.71943384 -101.51655493 303.14932464 -103.37890625 307.5625 C-106.03144051 313.88979422 -108.4031976 320.30425344 -110.75 326.75 C-113.77894461 335.00880149 -116.87656075 343.22505792 -120.1875 351.375 C-122.69113212 357.57288598 -125.1439287 363.78340113 -127.4375 370.0625 C-127.69305664 370.73812988 -127.94861328 371.41375977 -128.21191406 372.10986328 C-129.76582566 376.45360352 -130.17533932 380.15375517 -129.9375 384.75 C-125.57929809 386.90320343 -121.57068235 387.03203436 -116.80833435 387.00396729 C-115.58721918 387.00864726 -115.58721918 387.00864726 -114.34143502 387.01342177 C-111.61613999 387.02139319 -108.89106814 387.01508149 -106.16577148 387.00878906 C-104.21095652 387.01149928 -102.25614257 387.01506039 -100.30133057 387.01940918 C-94.99365066 387.02853114 -89.68604846 387.02498985 -84.37836719 387.01865101 C-78.82687338 387.01359076 -73.27538627 387.01828247 -67.72389221 387.02142334 C-58.40193486 387.0250626 -49.08000919 387.0202646 -39.75805664 387.01074219 C-28.97495532 386.99985454 -18.1919296 387.00338565 -7.40883011 387.014395 C1.84476639 387.02346519 11.09834011 387.02475456 20.35193962 387.01951766 C25.88077817 387.0163969 31.40958116 387.01599161 36.93841743 387.02259064 C42.13486402 387.02835966 47.33121291 387.0243753 52.52764893 387.01280212 C54.43685176 387.01015331 56.34606278 387.0109244 58.25526237 387.01532745 C60.85705931 387.02077549 63.45854124 387.01395784 66.06031799 387.00396729 C67.19917311 387.01065945 67.19917311 387.01065945 68.36103541 387.01748681 C72.08395056 386.98967203 74.90169262 386.82394591 78.0625 384.75 C78.86142854 376.07457595 75.99405787 369.36362813 72.75 361.4375 C72.19533798 360.04902776 71.64222367 358.65993635 71.09057617 357.27026367 C69.96357286 354.43711532 68.82871969 351.6073304 67.68652344 348.78027344 C65.37581384 343.05682352 63.1270741 337.3092165 60.875 331.5625 C60.43784668 330.45173096 60.00069336 329.34096191 59.55029297 328.1965332 C49.0997623 301.62729438 38.88363263 274.96578453 28.73922729 248.27841187 C24.50912251 237.15011303 20.25058275 226.03389885 15.9375 214.9375 C10.89332471 201.95789163 5.95167922 188.94088143 1.04443359 175.90893555 C0.49201908 174.4431374 -0.06055093 172.97739784 -0.61328125 171.51171875 C-0.8836319 170.79474823 -1.15398254 170.07777771 -1.43252563 169.33908081 C-3.46107781 163.97444972 -5.53932353 158.63016989 -7.62890625 153.2890625 C-10.06848796 147.04618972 -12.40535378 140.78448792 -14.5625 134.4375 C-16.86865657 127.74666274 -19.29110326 121.12953325 -21.87109375 114.5390625 C-23.35865925 110.64850659 -24.66087015 106.71427162 -25.9375 102.75 C-26.2675 102.75 -26.5975 102.75 -26.9375 102.75 Z " fill="#020202" transform="translate(271.9375,27.25)"/>
<path d="M0 0 C1.38199837 -0.00855011 1.38199837 -0.00855011 2.79191589 -0.01727295 C4.74643805 -0.0267394 6.70097628 -0.03326343 8.65551758 -0.03710938 C11.6449785 -0.04680047 14.63374793 -0.07780224 17.62304688 -0.109375 C19.51952716 -0.11590619 21.41601237 -0.12115621 23.3125 -0.125 C24.20741653 -0.1373468 25.10233307 -0.1496936 26.02436829 -0.16241455 C27.28038094 -0.1579129 27.28038094 -0.1579129 28.56176758 -0.15332031 C29.66310783 -0.15878876 29.66310783 -0.15878876 30.78669739 -0.16436768 C32.85546875 0.203125 32.85546875 0.203125 36.85546875 3.203125 C17.05546875 3.203125 -2.74453125 3.203125 -23.14453125 3.203125 C-23.14453125 2.873125 -23.14453125 2.543125 -23.14453125 2.203125 C-22.21769531 2.14253906 -21.29085937 2.08195312 -20.3359375 2.01953125 C-18.53962891 1.89384766 -18.53962891 1.89384766 -16.70703125 1.765625 C-14.91458984 1.64380859 -14.91458984 1.64380859 -13.0859375 1.51953125 C-8.67801991 1.04537278 -4.79601418 0.02262233 0 0 Z " fill="#515154" transform="translate(122.14453125,454.796875)"/>
<path d="M0 0 C4.94384403 -0.02493791 9.88765048 -0.04297138 14.83154297 -0.05493164 C16.50928384 -0.05992396 18.18702045 -0.06672015 19.86474609 -0.07543945 C28.64447123 -0.11988714 37.27524345 -0.12835446 46 1 C42.20491652 3.49564294 38.35642513 3.27268321 33.98046875 3.23046875 C33.20367264 3.23001053 32.42687653 3.22955231 31.62654114 3.2290802 C29.98497997 3.22606393 28.34342151 3.21819632 26.7019043 3.20581055 C24.2067636 3.18764028 21.71199663 3.18530048 19.21679688 3.18554688 C17.61718433 3.18062758 16.01757428 3.17479747 14.41796875 3.16796875 C13.67918991 3.16685593 12.94041107 3.1657431 12.179245 3.16459656 C7.69300296 3.12413105 3.42804679 2.72885919 -1 2 C-0.67 1.34 -0.34 0.68 0 0 Z " fill="#0C0C0C" transform="translate(180,455)"/>
<path d="M0 0 C0.81146484 -0.01611328 1.62292969 -0.03222656 2.45898438 -0.04882812 C8.44394404 -0.05373785 8.44394404 -0.05373785 11.62890625 1.83203125 C12.10199219 2.32058594 12.57507813 2.80914062 13.0625 3.3125 C9.83335248 3.34167228 6.60423917 3.35935663 3.375 3.375 C2.00698242 3.38756836 2.00698242 3.38756836 0.61132812 3.40039062 C-0.27490234 3.40361328 -1.16113281 3.40683594 -2.07421875 3.41015625 C-2.88592529 3.41539307 -3.69763184 3.42062988 -4.53393555 3.42602539 C-7.08614673 3.3054791 -9.44776137 2.872449 -11.9375 2.3125 C-7.87864966 -0.39340023 -4.7623546 -0.01882354 0 0 Z " fill="#5D5D5E" transform="translate(145.9375,454.6875)"/>
<path d="M0 0 C0.33 0 0.66 0 1 0 C1.53906263 6.1992203 0.19262718 11.60997818 -3 17 C-5.140625 18.29296875 -5.140625 18.29296875 -7 19 C-4.94235079 12.54646385 -2.57616518 6.2638737 0 0 Z " fill="#303031" transform="translate(119,346)"/>
<path d="M0 0 C0.66 0 1.32 0 2 0 C2.66 1.32 3.32 2.64 4 4 C4.33 4 4.66 4 5 4 C5.10957031 4.54527344 5.21914063 5.09054688 5.33203125 5.65234375 C6.51009937 11.25535065 8.087035 16.6054387 10 22 C9.34 22.33 8.68 22.66 8 23 C6.66408687 19.35510669 5.33170192 15.70893381 4 12.0625 C3.6184375 11.02158203 3.236875 9.98066406 2.84375 8.90820312 C2.4828125 7.91884766 2.121875 6.92949219 1.75 5.91015625 C1.41484375 4.99371338 1.0796875 4.07727051 0.734375 3.13305664 C0 1 0 1 0 0 Z " fill="#3A3A3A" transform="translate(271,199)"/>
<path d="M0 0 C0.66 0 1.32 0 2 0 C1.43179252 5.45479185 0.05362055 9.91059256 -2 15 C-2.99 14.67 -3.98 14.34 -5 14 C-3.35 9.38 -1.7 4.76 0 0 Z " fill="#313131" transform="translate(142,285)"/>
<path d="M0 0 C1.29362893 3.88088679 0.41911705 5.63542071 -0.8125 9.5 C-1.16957031 10.6446875 -1.52664062 11.789375 -1.89453125 12.96875 C-3 16 -3 16 -5 19 C-5.66 19 -6.32 19 -7 19 C-4.94235079 12.54646385 -2.57616518 6.2638737 0 0 Z " fill="#2C2C2C" transform="translate(101,393)"/>
<path d="M0 0 C0.66 0 1.32 0 2 0 C0.19245484 12.1424504 0.19245484 12.1424504 -3 16 C-3.66 16 -4.32 16 -5 16 C-3.41078475 10.63904723 -1.81027062 5.29156027 0 0 Z " fill="#303030" transform="translate(166,221)"/>
<path d="M0 0 C4.29 0 8.58 0 13 0 C13 0.99 13 1.98 13 3 C6.07 2.505 6.07 2.505 -1 2 C-0.67 1.34 -0.34 0.68 0 0 Z " fill="#383839" transform="translate(180,455)"/>
<path d="M0 0 C0.33 0 0.66 0 1 0 C1.33337803 4.77841845 0.55194066 7.01897257 -2 11 C-2.70670728 13.69254991 -2.70670728 13.69254991 -3 16 C-3.66 16 -4.32 16 -5 16 C-4.39363767 10.23955788 -2.24341721 5.27985631 0 0 Z " fill="#282828" transform="translate(185,172)"/>
<path d="M0 0 C0.66 0 1.32 0 2 0 C1.34 3.3 0.68 6.6 0 10 C-0.66 10 -1.32 10 -2 10 C-2 11.65 -2 13.3 -2 15 C-2.99 14.67 -3.98 14.34 -5 14 C-3.35 9.38 -1.7 4.76 0 0 Z " fill="#373737" transform="translate(194,147)"/>
<path d="M0 0 C0 2 0 2 -1.609375 3.69140625 C-2.31578125 4.30886719 -3.0221875 4.92632812 -3.75 5.5625 C-4.44609375 6.18253906 -5.1421875 6.80257812 -5.859375 7.44140625 C-7.97982555 8.98531094 -9.43920573 9.57896851 -12 10 C-12 9.34 -12 8.68 -12 8 C-9.8828125 6.0546875 -9.8828125 6.0546875 -7.125 3.875 C-6.22007812 3.15054688 -5.31515625 2.42609375 -4.3828125 1.6796875 C-2 0 -2 0 0 0 Z " fill="#171717" transform="translate(244,44)"/>
<path d="M0 0 C5.61 0.33 11.22 0.66 17 1 C12.60405194 3.19797403 11.00732024 3.10073202 6.25 2.625 C5.07953125 2.51414062 3.9090625 2.40328125 2.703125 2.2890625 C1.81109375 2.19367188 0.9190625 2.09828125 0 2 C0 1.34 0 0.68 0 0 Z " fill="#1E1E1E" transform="translate(209,455)"/>
<path d="M0 0 C0.66 0 1.32 0 2 0 C1.48964169 4.3890815 0.47785723 7.33708062 -2 11 C-2.66 10.67 -3.32 10.34 -4 10 C-2.68 6.7 -1.36 3.4 0 0 Z " fill="#363637" transform="translate(128,322)"/>
<path d="M0 0 C4 2 4 2 5.046875 4.6015625 C5.27890625 5.59929687 5.5109375 6.59703125 5.75 7.625 C5.99234375 8.62789063 6.2346875 9.63078125 6.484375 10.6640625 C6.65453125 11.43492187 6.8246875 12.20578125 7 13 C6.01 13.495 6.01 13.495 5 14 C3.35 9.38 1.7 4.76 0 0 Z " fill="#292929" transform="translate(312,307)"/>
<path d="M0 0 C0.33 0 0.66 0 1 0 C0.67 3.63 0.34 7.26 0 11 C-1.32 11.33 -2.64 11.66 -4 12 C-2.68 8.04 -1.36 4.08 0 0 Z " fill="#383838" transform="translate(221,73)"/>
<path d="M0 0 C3 1 3 1 4.125 2.75 C5.05946943 5.15292138 5.57674394 7.46046361 6 10 C5.01 10.495 5.01 10.495 4 11 C2.68 7.37 1.36 3.74 0 0 Z " fill="#282828" transform="translate(320,328)"/>
<path d="M0 0 C0.66 0 1.32 0 2 0 C2.66 1.32 3.32 2.64 4 4 C4.33 4 4.66 4 5 4 C5 6.31 5 8.62 5 11 C2.03947516 7.63576723 1.07710178 4.30840713 0 0 Z " fill="#252525" transform="translate(271,199)"/>
<path d="M0 0 C0.66 0.33 1.32 0.66 2 1 C1.01 3.97 0.02 6.94 -1 10 C-1.66 10 -2.32 10 -3 10 C-2.01 6.7 -1.02 3.4 0 0 Z " fill="#434343" transform="translate(93,413)"/>
</svg>
