<?xml version="1.0" encoding="UTF-8"?>
<svg version="1.1" xmlns="http://www.w3.org/2000/svg" width="480" height="300">
<path d="M0 0 C58.74 0 117.48 0 178 0 C178 86.13 178 172.26 178 261 C158.53 261 139.06 261 119 261 C119 191.04 119 121.08 119 49 C79.73 49 40.46 49 0 49 C0 32.83 0 16.66 0 0 Z " fill="#5476D0" transform="translate(48,15)"/>
<path d="M0 0 C19.47 0 38.94 0 59 0 C59 69.63 59 139.26 59 211 C98.27 211 137.54 211 178 211 C178 227.17 178 243.34 178 260 C119.26 260 60.52 260 0 260 C0 174.2 0 88.4 0 0 Z " fill="#7492BF" transform="translate(254,16)"/>
</svg>
